<svg version="1.1" id="Layer_1" xmlns="http://www.w3.org/2000/svg" xmlns:xlink="http://www.w3.org/1999/xlink" x="0px" y="0px"
	 width="100%" viewBox="0 0 331 271" enable-background="new 0 0 331 271" xml:space="preserve">
<path fill="#010101" opacity="1.000000" stroke="none" 
	d="
M207.000000,272.000000 
	C138.000000,272.000000 69.500000,272.000000 1.000000,272.000000 
	C1.000000,181.666672 1.000000,91.333336 1.000000,1.000000 
	C111.333336,1.000000 221.666672,1.000000 332.000000,1.000000 
	C332.000000,91.333336 332.000000,181.666672 332.000000,272.000000 
	C290.500000,272.000000 249.000000,272.000000 207.000000,272.000000 
M135.234161,32.841522 
	C134.413803,33.188122 133.593460,33.534725 132.230072,34.239052 
	C130.842834,35.170696 129.455597,36.102341 127.614723,37.527233 
	C123.746040,41.016895 119.877365,44.506557 115.996826,48.000694 
	C115.996826,48.000694 115.995575,48.012615 115.590233,48.233078 
	C115.326622,48.430660 115.184830,48.693874 114.585854,49.289444 
	C114.030228,50.147129 113.474602,51.004810 112.355309,52.252316 
	C109.520302,57.497856 106.685295,62.743397 103.268112,68.434723 
	C102.551056,70.958145 101.834000,73.481575 100.968567,76.633522 
	C100.923546,77.061584 100.878525,77.489655 100.215279,77.378464 
	C100.215279,59.832989 100.215279,42.287518 100.215279,23.953169 
	C96.382965,24.686306 93.421906,25.252768 89.690636,25.906504 
	C86.458832,26.653498 83.227020,27.400492 79.274246,28.229319 
	C76.460854,29.460310 73.647469,30.691301 70.202637,32.192314 
	C66.969101,34.407761 63.735565,36.623211 59.818546,38.697601 
	C57.187325,40.751472 54.556099,42.805340 51.325542,45.191883 
	C45.914356,51.206844 41.816505,57.854908 38.473656,65.378487 
	C35.051094,73.081474 32.270046,80.586525 31.955982,89.015350 
	C31.598423,98.611557 31.891760,108.075607 36.002380,117.720238 
	C37.026379,120.143227 38.050381,122.566216 39.083710,125.534164 
	C39.367737,125.739998 39.651764,125.945831 39.972412,126.593300 
	C39.972412,126.593300 40.173916,126.987968 40.122398,127.689384 
	C42.460789,130.789978 44.799179,133.890564 47.018093,137.696365 
	C49.618759,140.157394 52.219429,142.618423 54.915657,145.792191 
	C57.623466,147.856415 60.331276,149.920639 63.438034,152.529984 
	C66.161369,154.070312 68.884697,155.610641 71.996033,157.678284 
	C72.602356,157.882538 73.208679,158.086792 73.794846,158.229080 
	C73.794846,158.229080 73.850937,158.262238 74.285187,158.856873 
	C78.495705,159.956299 82.706223,161.055725 87.593117,162.589294 
	C103.432907,165.856064 117.958359,161.653534 132.673447,155.106674 
	C137.434189,156.749496 142.194931,158.392319 147.496643,160.550598 
	C153.469681,161.846573 159.442719,163.142548 166.105743,164.588242 
	C166.105743,143.834976 166.105743,124.454765 166.661102,105.480194 
	C167.061981,107.011383 167.462875,108.542572 167.835434,110.722374 
	C167.922287,111.145882 168.009140,111.569389 168.018036,112.772621 
	C169.378662,116.508209 170.739288,120.243797 172.150497,124.518326 
	C172.380890,124.788536 172.611267,125.058746 172.855392,125.682343 
	C172.855392,125.682343 173.007767,126.001495 173.017502,126.565361 
	C173.349976,126.976967 173.682449,127.388573 174.274139,128.025314 
	C174.274139,128.025314 174.602921,128.124130 174.779678,128.828156 
	C175.812637,130.569336 176.845581,132.310501 177.984680,134.674271 
	C178.637894,135.456299 179.291122,136.238312 180.060059,137.652115 
	C180.661819,138.198120 181.263580,138.744125 182.193451,139.846207 
	C183.764648,141.299911 185.335831,142.753632 186.974213,144.591949 
	C186.974213,144.591949 187.152695,144.939224 187.323074,145.547836 
	C188.517899,146.377563 189.712723,147.207306 191.241119,148.636795 
	C198.124054,154.391785 205.964310,157.799637 214.538864,160.745499 
	C229.348099,165.833359 243.332291,163.516617 257.116791,158.685608 
	C263.019104,156.617050 267.950226,151.777435 273.971710,148.064606 
	C276.437225,145.763855 278.902710,143.463120 282.020569,140.984497 
	C284.947113,136.649414 287.873657,132.314331 291.204651,127.398224 
	C292.450043,124.270882 293.695435,121.143539 295.110474,117.642670 
	C295.110474,117.642670 295.100098,117.232559 295.561096,116.734039 
	C296.012817,115.488136 296.464569,114.242233 297.279297,112.314667 
	C297.805054,108.205482 298.330811,104.096291 298.991211,99.121056 
	C298.950287,97.079834 298.909363,95.038605 298.997223,92.130096 
	C298.616516,88.751244 298.235809,85.372391 297.976807,81.173317 
	C297.153473,73.379616 294.639954,66.201057 289.874908,59.101181 
	C288.383331,56.622948 287.108612,53.979210 285.364624,51.693596 
	C274.775696,37.816349 261.120911,28.791361 243.682846,26.068907 
	C239.155777,25.362133 234.538269,24.660711 229.987228,24.795868 
	C219.073135,25.119993 209.019348,29.027233 198.351685,32.975933 
	C196.899368,32.644760 195.447052,32.313583 193.588425,31.905006 
	C193.588425,31.905006 193.174805,31.906368 192.758804,31.318022 
	C191.677567,30.589590 190.692719,29.553932 189.500320,29.179771 
	C176.110138,24.978140 162.597672,22.530277 148.796234,27.266439 
	C145.778336,28.302074 142.878906,29.682940 140.003662,30.994123 
	C140.003662,30.994123 139.934219,30.896441 139.253265,30.921349 
	C138.145248,31.570667 137.037231,32.219990 136.013397,32.927715 
	C136.013397,32.927715 135.922760,32.888157 135.234161,32.841522 
M106.122986,215.894821 
	C106.122986,215.894821 106.168549,215.781891 106.079453,216.545242 
	C107.033150,217.371994 107.986847,218.198746 108.996506,219.000839 
	C108.996506,219.000839 108.974968,219.058060 108.983200,219.875015 
	C108.595642,222.930862 109.767265,224.468796 113.073181,224.561905 
	C113.374626,224.880905 113.676071,225.199890 113.977516,225.518890 
	C114.155884,225.312454 114.334251,225.106033 114.512619,224.899597 
	C114.008606,224.599533 113.504593,224.299454 112.999878,223.258545 
	C113.001152,222.517746 113.002426,221.776962 113.702721,220.975311 
	C114.148460,221.101334 114.594200,221.227356 115.283829,221.669632 
	C115.487885,221.855148 115.726707,221.965271 116.684792,221.997742 
	C117.133018,222.075516 117.581245,222.153290 118.341652,222.599533 
	C118.885307,222.472397 119.428963,222.345261 120.682037,222.000443 
	C121.415298,221.892624 122.148560,221.784805 123.194618,222.368378 
	C127.747581,225.223694 131.495209,222.505753 132.000000,216.000000 
	C132.000000,216.000000 131.989151,215.991379 132.705399,215.877716 
	C136.973572,212.634720 136.688538,208.459564 134.877380,203.423889 
	C134.868851,202.778992 134.860336,202.134109 135.001556,200.625229 
	C135.403641,198.032089 135.805725,195.438965 136.318710,192.130630 
	C134.244583,193.035690 133.143631,193.516083 131.813339,193.824097 
	C131.813339,193.824097 131.825653,193.537445 131.916458,192.685577 
	C131.842422,191.291916 131.768402,189.898254 131.670074,188.047333 
	C129.765167,188.713440 128.415848,189.185272 126.541016,189.600815 
	C126.365318,189.587784 126.189629,189.574768 125.869026,188.994247 
	C125.219795,188.673996 124.570564,188.353729 123.442657,188.054153 
	C123.442657,188.054153 123.005257,187.858612 122.790405,187.103317 
	C119.164825,186.937592 114.839615,185.455292 112.081055,186.921173 
	C108.148407,189.010971 105.287750,193.195206 102.210884,196.697174 
	C101.908112,197.041763 103.289131,198.865768 103.958992,200.915100 
	C103.998520,204.541809 104.038040,208.168503 104.189560,212.285355 
	C104.421425,212.519409 104.653282,212.753464 105.128311,213.337189 
	C105.128311,213.337189 105.093079,213.761642 105.075394,214.436829 
	C105.465179,214.923203 105.854965,215.409592 106.122986,215.894821 
M92.061226,188.241547 
	C91.693718,188.279968 91.326202,188.318375 90.482430,188.122833 
	C90.319626,188.053696 90.156830,187.984543 89.808258,187.610397 
	C89.540657,187.717834 89.273056,187.825287 88.117531,188.108398 
	C85.406029,188.049118 82.694519,187.989822 79.799721,187.170349 
	C73.791763,184.452286 72.010399,185.451767 71.998039,191.579300 
	C71.984390,198.345932 71.901283,205.114517 72.038734,211.878372 
	C72.100700,214.927750 72.623932,217.967758 73.451454,221.287094 
	C73.631905,221.358871 73.812355,221.430649 74.214462,222.123322 
	C75.630234,223.354538 77.046005,224.585770 78.595390,225.933182 
	C81.595551,221.824799 85.416695,222.562897 89.473366,223.908005 
	C90.644615,224.296356 93.043839,224.279327 93.232613,223.799713 
	C94.497856,220.585175 95.318123,217.195496 96.328781,213.703430 
	C91.055794,213.703430 86.818047,213.703430 82.551865,213.703430 
	C81.989105,211.693420 81.500595,209.948608 81.907356,208.021133 
	C85.255219,207.999817 88.603081,207.978516 92.712349,207.987518 
	C94.639595,208.686966 96.566841,209.386398 98.788643,210.192734 
	C97.793251,207.442017 96.864128,204.874420 95.929642,202.292007 
	C94.606064,201.907227 93.209351,201.501160 91.940361,201.069916 
	C91.940361,201.069916 91.917007,201.197998 91.651199,200.628586 
	C90.768951,200.742035 89.886696,200.855484 88.210594,201.113602 
	C87.140816,201.056427 86.071037,200.999252 84.857933,200.253387 
	C83.560310,199.365768 82.262688,198.478149 81.047211,197.646729 
	C85.317024,196.744781 89.204842,195.923523 93.834435,195.015884 
	C95.192101,193.624359 96.549767,192.232834 97.907425,190.841293 
	C96.145020,189.958099 94.382622,189.074905 92.061226,188.241547 
M132.482803,247.531097 
	C130.769165,247.760727 129.055511,247.990356 127.157333,248.244720 
	C127.157333,244.861389 127.157333,241.935852 127.861664,238.902740 
	C130.743958,239.275742 133.626236,239.648743 136.475983,240.017532 
	C136.066025,238.614120 135.632416,237.129730 135.232468,235.760574 
	C132.657394,235.760574 130.371017,235.760574 127.182594,235.828873 
	C126.124199,236.614029 124.226242,237.327377 124.151901,238.196701 
	C123.819588,242.082336 124.007401,246.012466 124.007401,251.363251 
	C127.607994,250.064972 130.418274,249.051666 133.740356,248.296509 
	C135.579285,246.631332 138.339081,245.099747 134.481720,242.020737 
	C133.868927,244.067627 133.410065,245.600311 132.482803,247.531097 
M51.963650,209.264816 
	C51.100727,211.442856 50.237804,213.620895 48.569481,215.896484 
	C48.308990,215.823853 48.048500,215.751221 47.734035,214.867538 
	C46.339062,212.388092 44.944088,209.908661 43.549110,207.429214 
	C43.150341,207.626999 42.751572,207.824783 42.352798,208.022568 
	C41.829178,205.820267 41.305557,203.617966 40.786255,200.828674 
	C41.268093,200.226089 41.749931,199.623505 43.031467,199.017273 
	C47.356461,198.006912 51.681454,196.996567 56.693165,195.998398 
	C57.477375,195.331406 58.261581,194.664429 59.532135,193.605820 
	C59.659599,193.010406 59.787060,192.414993 59.892967,191.052902 
	C58.872150,190.235596 57.969975,188.982864 56.812412,188.667465 
	C43.372448,185.005524 29.860374,194.718689 32.080662,210.312683 
	C32.162666,212.631744 31.321596,215.810455 32.516293,217.093262 
	C35.109837,219.878128 38.238644,223.129471 43.486759,221.051285 
	C43.651176,221.104767 43.815590,221.158264 44.098881,221.899841 
	C44.638710,222.475403 45.156841,223.522095 45.721981,223.548126 
	C48.809681,223.690353 51.952332,223.902084 54.994816,223.489929 
	C60.616802,222.728333 61.441742,220.989731 61.182224,215.012482 
	C61.055622,212.096497 62.154976,209.127289 62.855179,205.339523 
	C62.621490,204.348618 62.144489,202.325974 61.566689,199.875916 
	C59.196358,200.657990 56.578800,201.521637 53.331654,202.601959 
	C52.899864,202.529495 52.468071,202.457031 51.812366,201.819458 
	C50.572762,202.280197 49.333153,202.740921 48.144173,203.963516 
	C48.127460,205.235245 48.110744,206.506973 48.102654,208.164276 
	C48.390182,208.216919 48.677715,208.269577 49.714436,208.180817 
	C50.460659,208.296188 51.206882,208.411560 51.963650,209.264816 
M225.224350,211.778793 
	C229.726639,211.401474 228.702484,215.511215 229.700607,217.693069 
	C230.852783,220.211685 231.610886,222.298691 235.274490,220.620880 
	C231.773605,209.798935 228.268066,198.962585 224.812469,188.280609 
	C222.725006,188.280609 221.097992,188.280609 219.610214,188.280609 
	C216.065811,199.288589 212.584686,210.100052 209.071915,221.009781 
	C213.921646,221.005295 214.523117,220.775375 214.914810,216.203049 
	C215.233597,212.481812 216.834656,211.259094 220.315414,211.709961 
	C221.625443,211.879639 222.973145,211.758728 225.224350,211.778793 
M294.024475,192.098221 
	C294.972534,191.133972 295.920593,190.169739 297.710571,188.349213 
	C290.343170,188.349213 284.900299,188.349213 279.222778,188.349213 
	C279.222778,199.342789 279.222778,210.113480 279.222778,221.205429 
	C284.576111,221.205429 289.894867,221.278641 295.207062,221.125488 
	C295.992340,221.102859 296.746735,220.009766 297.515411,219.411942 
	C296.687164,218.874481 295.878204,217.911545 295.027344,217.872986 
	C291.276672,217.703049 287.513947,217.799561 283.550903,217.799561 
	C283.550903,213.509476 283.550903,209.925095 283.550903,205.896378 
	C287.644165,205.896378 291.581940,205.896378 295.664154,205.896378 
	C295.600922,204.802551 295.640472,203.609924 295.515198,203.592346 
	C291.559509,203.037430 287.587799,202.596756 283.483917,202.123154 
	C283.483917,198.730194 283.483917,195.614960 283.483917,192.098343 
	C286.833954,192.098343 289.975891,192.098343 294.024475,192.098221 
M248.443375,221.187500 
	C249.300659,220.200485 250.783813,219.280014 250.897156,218.213913 
	C251.228989,215.092438 251.015228,211.912979 251.015228,208.777466 
	C263.392029,207.822678 268.418121,203.924698 266.863068,196.331360 
	C265.469055,189.524338 258.774506,186.065201 246.991257,189.018265 
	C246.991257,199.079590 246.980789,209.222473 247.017853,219.365173 
	C247.020020,219.959839 247.406158,220.553101 248.443375,221.187500 
M153.808136,192.058533 
	C156.514572,190.103409 161.420731,195.797867 163.523468,188.700241 
	C159.697617,188.447021 156.421753,187.755600 153.269394,188.123215 
	C147.244858,188.825745 143.629028,196.492630 147.351608,201.265350 
	C149.597748,204.145157 153.229065,206.219345 156.625641,207.846100 
	C159.722855,209.329453 160.775223,211.782562 159.732513,214.156830 
	C158.944778,215.950531 156.241394,217.556381 154.151733,217.938065 
	C152.128265,218.307663 149.799789,217.006531 147.605087,216.439850 
	C147.165329,216.326279 146.724823,216.215591 146.024826,216.037445 
	C145.684982,217.375336 145.385574,218.553970 145.047424,219.885147 
	C147.611389,220.650497 149.782303,221.565842 152.041000,221.917694 
	C156.891953,222.673294 163.014252,219.365234 163.952820,215.742340 
	C165.474197,209.869812 163.703613,206.531479 157.681854,203.781601 
	C156.637634,203.304733 155.695999,202.607147 154.690842,202.040131 
	C149.168137,198.924759 148.852814,197.162216 153.808136,192.058533 
M185.278885,216.405396 
	C180.134415,213.493546 177.157516,206.631454 179.481750,201.170624 
	C182.395172,194.325485 184.663498,190.542130 198.948975,191.879410 
	C198.303040,190.343430 197.266068,188.401611 196.063690,188.293106 
	C191.032150,187.839096 186.406143,187.787796 181.552338,191.209137 
	C173.876526,196.619644 173.544617,207.035858 176.151367,213.258530 
	C179.308624,220.795334 188.646805,223.940323 196.763870,220.802094 
	C197.797638,220.402405 198.405640,218.901474 199.041306,218.119370 
	C193.989120,217.621078 189.977707,217.225433 185.278885,216.405396 
M76.776505,235.785431 
	C74.741341,240.395096 72.706169,245.004761 70.671005,249.614410 
	C71.214249,249.861954 71.757484,250.109497 72.300728,250.357040 
	C72.683067,249.738174 72.963600,249.015335 73.468193,248.521378 
	C74.644875,247.369522 75.833855,245.661713 77.202255,245.465591 
	C78.184570,245.324768 79.447044,247.285202 80.618469,248.267776 
	C81.462112,248.975449 82.361671,249.616486 83.994888,250.869003 
	C82.372818,245.694977 81.247131,241.758972 79.853928,237.920044 
	C79.533691,237.037659 78.294586,236.488739 76.776505,235.785431 
M252.952118,243.253204 
	C254.458862,243.002823 255.965591,242.752457 257.472321,242.502075 
	C257.413239,242.086380 257.354126,241.670685 257.295044,241.254990 
	C255.267624,241.062531 253.240204,240.870056 251.234299,240.679626 
	C250.065063,234.333267 256.281769,238.936569 257.618134,236.131134 
	C254.728943,236.131134 252.054871,236.131134 249.426300,236.131134 
	C249.426300,240.949219 249.426300,245.376678 249.426300,249.500992 
	C252.473877,249.500992 255.249207,249.500992 258.024506,249.500992 
	C257.995789,249.104843 257.967041,248.708694 257.938293,248.312561 
	C255.761658,248.140808 253.585022,247.969070 250.725433,247.743439 
	C251.235748,246.078354 251.661942,244.687759 252.952118,243.253204 
M210.226242,246.099945 
	C209.347000,244.024567 208.467773,241.949203 207.641495,239.998856 
	C201.404373,239.386826 198.485001,243.127609 199.806747,251.582581 
	C203.271423,240.371887 206.910553,245.767761 210.951385,249.993057 
	C210.788223,248.934052 210.625061,247.875031 210.226242,246.099945 
M156.209167,241.060043 
	C155.242813,240.372406 154.276474,239.684769 152.365662,238.325043 
	C155.245438,237.594971 157.182968,237.103775 159.120499,236.612579 
	C159.024246,236.197021 158.927994,235.781464 158.831741,235.365906 
	C156.548355,235.850143 154.264969,236.334381 151.981567,236.818619 
	C152.424225,238.718094 152.499817,240.822144 153.412445,242.459686 
	C154.330994,244.107788 156.081894,245.291992 157.468063,246.679489 
	C155.533813,247.159515 153.594528,247.621124 151.672821,248.146973 
	C151.472717,248.201721 151.376846,248.637314 151.099854,249.134506 
	C154.134705,251.625046 157.114853,250.915939 159.231659,248.278839 
	C161.677719,245.231567 159.378281,243.200653 156.209167,241.060043 
M229.361511,244.026810 
	C233.125061,244.302521 235.629730,242.287445 234.747070,238.823975 
	C233.407822,233.568909 229.047195,236.338394 226.154999,236.176224 
	C226.154999,240.997513 226.154999,245.436661 226.154999,250.190384 
	C227.059265,247.827225 227.784134,245.932861 229.361511,244.026810 
M48.962761,243.507507 
	C48.962761,245.626968 48.962761,247.746429 48.962761,249.679352 
	C52.192928,249.679352 55.089512,249.679352 57.986095,249.679352 
	C58.014542,249.271652 58.042992,248.863953 58.071442,248.456238 
	C56.145668,248.224838 54.219894,247.993439 52.326527,247.765930 
	C50.556942,243.928864 53.872101,238.952103 48.962765,234.442337 
	C48.962765,238.069626 48.962765,240.333359 48.962761,243.507507 
M36.296833,247.097870 
	C37.319332,245.535873 38.572212,244.054703 39.172256,242.344513 
	C39.294010,241.997513 36.938938,240.130890 35.751087,240.156174 
	C34.539623,240.181992 33.359425,241.675812 32.165535,242.526901 
	C33.287457,244.060623 34.409382,245.594330 36.296833,247.097870 
M292.648224,247.066315 
	C294.119629,245.585022 295.591064,244.103729 297.062469,242.622437 
	C295.349762,241.499176 293.637024,240.375916 291.924316,239.252640 
	C291.455078,239.699341 290.985840,240.146027 290.516602,240.592712 
	C290.989105,242.664017 291.461609,244.735306 292.648224,247.066315 
M177.213135,249.415115 
	C179.781326,249.703049 182.349518,249.990967 184.917709,250.278885 
	C185.046570,249.623169 185.175430,248.967453 185.304291,248.311737 
	C180.898361,247.995285 175.784378,248.874161 175.201294,242.103882 
	C174.652466,242.519989 174.103622,242.936096 173.554794,243.352203 
	C174.556366,245.250244 175.557953,247.148300 177.213135,249.415115 
M274.330383,235.924362 
	C273.630646,237.279572 272.046967,239.512161 272.377289,239.844940 
	C274.258911,241.740585 276.597015,243.183151 278.779938,244.779739 
	C279.136749,244.273071 279.493561,243.766418 279.850403,243.259766 
	C278.220886,241.967728 276.591400,240.675690 274.961914,239.383667 
	C276.182648,238.197678 277.403381,237.011673 279.180145,235.285446 
	C277.464203,235.488953 276.278595,235.629562 274.330383,235.924362 
M109.069443,237.433609 
	C108.458061,237.430573 107.314781,237.387115 107.311508,237.430283 
	C107.137047,239.726196 107.983200,242.883499 106.794914,244.169601 
	C103.412025,247.830994 106.566483,248.575531 109.082718,251.411163 
	C109.082718,246.111145 109.082718,242.180817 109.069443,237.433609 
M100.015739,241.260391 
	C100.776970,240.721573 102.252274,239.819748 102.190948,239.699127 
	C101.428123,238.198639 100.441994,236.811707 99.513268,235.395569 
	C99.187035,235.608536 98.860809,235.821518 98.534576,236.034485 
	C98.534576,240.712006 98.534576,245.389526 98.534576,250.067047 
	C99.025436,250.087082 99.516296,250.107101 100.007156,250.127136 
	C100.007156,247.458069 100.007156,244.789001 100.015739,241.260391 
M77.823624,183.727219 
	C77.974167,183.618317 78.124702,183.509415 78.275246,183.400513 
	C78.066795,183.421860 77.858353,183.443222 77.823624,183.727219 
z"/>
<path fill="#3464AE" opacity="1.000000" stroke="none" 
	d="
M199.079361,33.170361 
	C209.019348,29.027233 219.073135,25.119993 229.987228,24.795868 
	C234.538269,24.660711 239.155777,25.362133 243.682846,26.068907 
	C261.120911,28.791361 274.775696,37.816349 285.364624,51.693596 
	C287.108612,53.979210 288.383331,56.622948 289.822876,59.700153 
	C286.731293,59.945496 283.749756,59.574860 281.308533,62.226238 
	C280.799622,62.778915 279.462677,62.708801 278.511139,62.693123 
	C265.970245,62.486450 253.430038,62.239510 240.889709,61.999100 
	C237.903152,61.941849 234.842361,62.260986 231.949432,61.707806 
	C228.400482,61.029182 227.637589,62.090080 228.579285,65.295105 
	C228.852692,66.225616 228.804672,67.250572 228.566055,68.104446 
	C225.033981,62.494354 222.630859,56.291500 218.453033,51.705307 
	C212.751434,45.446350 205.697937,40.418919 199.165741,34.654110 
	C199.107483,34.444717 198.948166,34.040279 198.993240,33.824650 
	C199.038315,33.609020 199.079361,33.170361 199.079361,33.170361 
z"/>
<path fill="#2354A0" opacity="1.000000" stroke="none" 
	d="
M167.863770,110.073776 
	C167.462875,108.542572 167.061981,107.011383 166.366043,104.901505 
	C166.031448,103.570908 165.991928,102.818985 165.977600,101.648758 
	C165.940582,96.548409 167.893951,94.774513 172.893387,94.851067 
	C192.591064,95.152710 212.295853,94.990242 232.337143,95.146866 
	C238.012909,95.195709 243.349319,95.031990 248.686218,95.013046 
	C260.685059,94.970467 272.688385,95.184204 284.681000,94.908104 
	C289.422302,94.798958 294.140015,93.664818 298.868469,92.997383 
	C298.909363,95.038605 298.950287,97.079834 298.573456,99.610802 
	C293.711121,102.132210 298.208496,105.489716 296.563293,107.987946 
	C293.189148,107.651329 290.236816,107.047516 287.283417,107.042297 
	C250.649872,106.977592 214.015762,106.924248 177.383301,107.133423 
	C174.204620,107.151573 171.036682,109.049187 167.863770,110.073776 
z"/>
<path fill="#2D5DA9" opacity="1.000000" stroke="none" 
	d="
M228.904022,68.232231 
	C228.804672,67.250572 228.852692,66.225616 228.579285,65.295105 
	C227.637589,62.090080 228.400482,61.029182 231.949432,61.707806 
	C234.842361,62.260986 237.903152,61.941849 240.889709,61.999100 
	C253.430038,62.239510 265.970245,62.486450 278.511139,62.693123 
	C279.462677,62.708801 280.799622,62.778915 281.308533,62.226238 
	C283.749756,59.574860 286.731293,59.945496 289.972137,60.016228 
	C294.639954,66.201057 297.153473,73.379616 297.499176,81.586258 
	C275.438873,86.073036 253.637756,83.085617 231.691559,83.719223 
	C230.937912,79.677734 230.450409,75.928795 229.882767,71.930908 
	C229.544983,71.458504 229.287354,71.235046 228.986343,70.663490 
	C228.929977,69.621010 228.916992,68.926620 228.904022,68.232231 
z"/>
<path fill="#C99A20" opacity="1.000000" stroke="none" 
	d="
M63.039085,151.984863 
	C60.331276,149.920639 57.623466,147.856415 55.275864,145.413391 
	C63.146175,144.004242 64.531677,142.395248 66.228134,135.091675 
	C68.115822,126.964806 69.851257,118.686630 72.957664,111.001709 
	C74.859810,106.296005 75.753510,102.380898 73.325844,97.975708 
	C79.399643,94.579796 79.555573,94.227112 78.252373,87.329659 
	C78.129631,86.679993 77.860764,85.925522 78.064484,85.367455 
	C79.771530,80.690948 81.595070,76.057159 83.337685,71.393387 
	C84.271652,68.893822 86.004379,66.292198 85.817047,63.856586 
	C85.412567,58.597858 87.003578,54.063900 89.308701,49.668549 
	C93.201645,42.245632 95.105545,34.401772 95.416290,26.021549 
	C99.186005,25.720396 98.989929,28.022324 98.982475,30.255976 
	C98.938293,43.499641 98.916260,56.743389 98.510963,69.997902 
	C94.466278,70.379402 93.763634,72.821884 92.837631,76.038391 
	C90.729614,83.360641 93.536736,92.124138 86.570213,98.057632 
	C86.152603,98.413307 86.116394,99.280159 86.008774,99.926804 
	C84.659225,108.036331 83.386345,116.159241 81.948738,124.252960 
	C81.640961,125.985741 80.772125,127.622566 80.130287,129.291489 
	C79.098328,131.974792 77.431313,134.575317 77.101326,137.338440 
	C75.854538,147.778290 71.985992,152.030914 63.039085,151.984863 
z"/>
<path fill="#CEA21E" opacity="1.000000" stroke="none" 
	d="
M94.995445,26.044102 
	C95.105545,34.401772 93.201645,42.245632 89.308701,49.668549 
	C87.003578,54.063900 85.412567,58.597858 85.817047,63.856586 
	C86.004379,66.292198 84.271652,68.893822 83.337685,71.393387 
	C81.595070,76.057159 79.771530,80.690948 78.064484,85.367455 
	C77.860764,85.925522 78.129631,86.679993 78.252373,87.329659 
	C79.555573,94.227112 79.399643,94.579796 73.325844,97.975708 
	C75.753510,102.380898 74.859810,106.296005 72.957664,111.001709 
	C69.851257,118.686630 68.115822,126.964806 66.228134,135.091675 
	C64.531677,142.395248 63.146175,144.004242 55.228081,145.057037 
	C52.219429,142.618423 49.618759,140.157394 47.450737,137.338593 
	C52.709846,136.341385 55.703087,133.283279 56.901134,128.937042 
	C60.255527,116.768143 63.194759,104.485474 66.411896,92.277756 
	C67.878883,86.711128 69.468422,81.166519 71.291176,75.708366 
	C72.170242,73.076027 75.031342,70.484970 74.713676,68.191132 
	C73.797081,61.572338 77.254181,56.503414 78.988297,50.743698 
	C80.995941,44.075481 81.514954,36.959076 82.724319,29.775368 
	C82.197777,29.461287 81.096497,28.804386 79.995216,28.147486 
	C83.227020,27.400492 86.458832,26.653498 90.529854,25.919838 
	C92.577866,25.970150 93.786652,26.007126 94.995445,26.044102 
z"/>
<path fill="#204D92" opacity="1.000000" stroke="none" 
	d="
M296.984589,107.998917 
	C298.208496,105.489716 293.711121,102.132210 298.506134,100.043823 
	C298.330811,104.096291 297.805054,108.205482 296.739197,112.736282 
	C295.832764,114.516121 295.466431,115.874344 295.100098,117.232559 
	C295.100098,117.232559 295.110474,117.642670 294.753296,118.045959 
	C292.410278,119.633255 290.521545,121.570755 288.418030,121.841965 
	C284.241028,122.380516 279.945648,121.999977 275.699188,122.000748 
	C242.690750,122.006744 209.682236,121.991875 176.674149,122.102470 
	C175.446350,122.106575 174.222641,123.334145 172.772736,123.989769 
	C172.548431,123.987976 172.099899,123.979393 172.099915,123.979393 
	C170.739288,120.243797 169.378662,116.508209 168.440781,112.376724 
	C169.996277,111.767242 171.134750,111.341331 172.260925,111.371681 
	C191.156067,111.880814 210.046707,112.616127 228.944550,112.946800 
	C244.078964,113.211632 259.222534,113.092987 274.360260,112.952148 
	C279.976807,112.899902 285.635529,112.615974 291.177612,111.786682 
	C293.255646,111.475739 295.057068,109.315834 296.984589,107.998917 
z"/>
<path fill="#D4A91C" opacity="1.000000" stroke="none" 
	d="
M79.634735,28.188402 
	C81.096497,28.804386 82.197777,29.461287 82.724319,29.775368 
	C81.514954,36.959076 80.995941,44.075481 78.988297,50.743698 
	C77.254181,56.503414 73.797081,61.572338 74.713676,68.191132 
	C75.031342,70.484970 72.170242,73.076027 71.291176,75.708366 
	C69.468422,81.166519 67.878883,86.711128 66.411896,92.277756 
	C63.194759,104.485474 60.255527,116.768143 56.901134,128.937042 
	C55.703087,133.283279 52.709846,136.341385 47.510479,136.985977 
	C44.799179,133.890564 42.460789,130.789978 40.508617,127.395752 
	C42.604698,127.804054 44.314556,128.505997 46.271980,129.309555 
	C46.961338,125.807846 46.834778,122.696938 48.153095,120.424126 
	C53.050674,111.980560 51.292637,101.917496 55.656700,93.158226 
	C59.309944,85.825668 60.679977,77.314384 62.752155,69.245720 
	C65.334824,59.189266 67.648026,49.062302 69.966827,38.940407 
	C70.490440,36.654766 70.557076,34.264435 70.834076,31.922293 
	C73.647469,30.691301 76.460854,29.460310 79.634735,28.188402 
z"/>
<path fill="#1F4888" opacity="1.000000" stroke="none" 
	d="
M172.997025,123.991562 
	C174.222641,123.334145 175.446350,122.106575 176.674149,122.102470 
	C209.682236,121.991875 242.690750,122.006744 275.699188,122.000748 
	C279.945648,121.999977 284.241028,122.380516 288.418030,121.841965 
	C290.521545,121.570755 292.410278,119.633255 294.668488,118.232727 
	C293.695435,121.143539 292.450043,124.270882 290.637878,127.702370 
	C288.612091,129.125336 287.153076,130.244156 285.306427,131.660263 
	C283.855469,131.492126 281.736267,131.035690 279.616394,131.032547 
	C248.432693,130.986328 217.247482,130.857391 186.066711,131.163544 
	C181.686539,131.206558 178.032578,130.641403 174.602921,128.124130 
	C174.602921,128.124130 174.274139,128.025314 174.116364,127.642105 
	C173.641663,126.839760 173.324707,126.420631 173.007767,126.001495 
	C173.007767,126.001495 172.855392,125.682343 172.900406,125.171829 
	C172.962616,124.438065 172.979828,124.214813 172.997025,123.991562 
z"/>
<path fill="#1E9346" opacity="1.000000" stroke="none" 
	d="
M100.833504,77.917717 
	C100.878525,77.489655 100.923546,77.061584 101.428574,76.326935 
	C103.655914,76.156914 105.425209,76.431160 107.190231,76.405975 
	C114.414467,76.302879 121.652328,75.773903 128.854202,76.095428 
	C132.214661,76.245453 135.455948,78.610367 138.835739,78.869461 
	C147.865860,79.561707 156.941711,79.657509 166.232681,79.993950 
	C166.465973,79.997559 166.932617,79.997902 166.939362,80.328384 
	C166.922379,81.098877 166.898651,81.538887 166.514587,82.077942 
	C165.791595,84.145615 165.428925,86.114258 165.070892,88.467712 
	C165.066116,89.878723 165.056702,90.904907 165.020721,92.190918 
	C164.984314,92.624557 164.974457,92.798393 164.761230,93.080399 
	C164.300201,93.371971 164.113708,93.610909 163.534210,93.930923 
	C158.702774,93.939453 154.335480,93.922417 149.661545,93.633118 
	C135.464371,93.261612 121.573875,93.151375 107.683174,93.102989 
	C107.122383,93.101036 106.559563,93.683746 105.677505,94.012283 
	C104.930992,94.047859 104.504654,94.065201 103.672852,94.050140 
	C102.184265,93.993073 101.101158,93.968422 100.014252,93.481644 
	C100.284805,87.985588 100.559151,82.951653 100.833504,77.917717 
z"/>
<path fill="#1D447D" opacity="1.000000" stroke="none" 
	d="
M174.691299,128.476135 
	C178.032578,130.641403 181.686539,131.206558 186.066711,131.163544 
	C217.247482,130.857391 248.432693,130.986328 279.616394,131.032547 
	C281.736267,131.035690 283.855469,131.492126 285.306427,131.660263 
	C287.153076,130.244156 288.612091,129.125336 290.435638,127.992882 
	C287.873657,132.314331 284.947113,136.649414 281.249878,141.021729 
	C273.263580,140.372650 266.054382,139.187622 258.831085,139.094498 
	C238.050079,138.826645 217.263382,138.982697 196.478989,139.017670 
	C193.156799,139.023254 188.820267,137.638611 189.198425,143.677826 
	C189.221985,144.054123 187.866547,144.516754 187.152695,144.939209 
	C187.152695,144.939224 186.974213,144.591949 186.969864,143.998169 
	C186.812576,140.115128 185.377502,138.415222 181.865341,139.290131 
	C181.263580,138.744125 180.661819,138.198120 180.291290,137.305099 
	C179.641205,135.989288 178.759872,135.020477 177.878540,134.051682 
	C176.845581,132.310501 175.812637,130.569336 174.691299,128.476135 
z"/>
<path fill="#1A3966" opacity="1.000000" stroke="none" 
	d="
M273.322632,148.196899 
	C267.950226,151.777435 263.019104,156.617050 257.116791,158.685608 
	C243.332291,163.516617 229.348099,165.833359 214.538864,160.745499 
	C205.964310,157.799637 198.124054,154.391785 191.484390,148.330246 
	C193.348419,148.317429 194.977539,148.899796 196.588440,148.853134 
	C202.462433,148.683075 208.329712,148.061295 214.200653,148.046082 
	C233.907730,147.994965 253.615265,148.131927 273.322632,148.196899 
z"/>
<path fill="#1B4075" opacity="1.000000" stroke="none" 
	d="
M273.647156,148.130768 
	C253.615265,148.131927 233.907730,147.994965 214.200653,148.046082 
	C208.329712,148.061295 202.462433,148.683075 196.588440,148.853134 
	C194.977539,148.899796 193.348419,148.317429 191.317596,148.030365 
	C189.712723,147.207306 188.517899,146.377563 187.237885,145.243530 
	C187.866547,144.516754 189.221985,144.054123 189.198425,143.677826 
	C188.820267,137.638611 193.156799,139.023254 196.478989,139.017670 
	C217.263382,138.982697 238.050079,138.826645 258.831085,139.094498 
	C266.054382,139.187622 273.263580,140.372650 280.923706,141.110687 
	C278.902710,143.463120 276.437225,145.763855 273.647156,148.130768 
z"/>
<path fill="#1F8442" opacity="1.000000" stroke="none" 
	d="
M166.932617,79.997902 
	C166.932617,79.997902 166.465973,79.997559 166.237503,79.637779 
	C166.694809,73.098549 165.593155,70.772667 159.495392,70.082886 
	C149.176453,68.915619 138.754990,68.661491 128.379135,67.984772 
	C126.586357,67.867844 124.811424,67.488838 123.018990,67.352936 
	C117.408173,66.927567 111.795906,66.487251 106.175835,66.258453 
	C105.425385,66.227905 104.626656,67.382942 103.850288,67.988937 
	C106.685295,62.743397 109.520302,57.497856 112.870651,52.372627 
	C116.560066,53.160126 119.711884,53.971634 122.912750,54.465023 
	C129.983749,55.554962 137.052475,56.826061 144.172272,57.388561 
	C152.060226,58.011745 160.055252,57.477039 167.898987,58.367905 
	C171.139908,58.735996 173.257843,58.654274 175.042496,56.409904 
	C172.326218,64.533844 169.629425,72.265877 166.932617,79.997902 
z"/>
<path fill="#2758A5" opacity="1.000000" stroke="none" 
	d="
M231.957718,84.011772 
	C253.637756,83.085617 275.438873,86.073036 297.438324,81.996368 
	C298.235809,85.372391 298.616516,88.751244 298.932861,92.563736 
	C294.140015,93.664818 289.422302,94.798958 284.681000,94.908104 
	C272.688385,95.184204 260.685059,94.970467 248.686218,95.013046 
	C243.349319,95.031990 238.012909,95.195709 232.341827,94.716095 
	C232.051285,92.416344 232.095184,90.694214 232.276367,88.876839 
	C232.305862,88.527023 232.198059,88.272469 232.051849,87.618546 
	C231.994873,86.150055 231.976303,85.080910 231.957718,84.011772 
M295.418579,83.483734 
	C295.418579,83.483734 295.522278,83.423393 295.418579,83.483734 
z"/>
<path fill="#1B9046" opacity="1.000000" stroke="none" 
	d="
M146.955673,160.035126 
	C142.194931,158.392319 137.434189,156.749496 132.315308,154.657928 
	C131.934891,153.831024 131.912628,153.452866 132.267334,153.047333 
	C136.114227,150.382263 139.584137,147.744583 143.358368,144.950806 
	C146.146713,141.883789 148.630722,138.972885 151.398071,135.897980 
	C153.392731,133.458588 155.104065,131.183197 157.001907,128.629395 
	C158.073334,126.564789 158.958267,124.778603 159.908340,122.608788 
	C160.000259,121.195473 160.027023,120.165787 160.363098,119.080772 
	C161.808105,116.671822 162.943832,114.318199 164.351715,112.282089 
	C164.743469,128.030426 164.829834,143.461639 165.012085,158.891724 
	C165.046463,161.802338 163.358414,162.244888 161.152084,161.976013 
	C156.411514,161.398300 151.686844,160.689987 146.955673,160.035126 
z"/>
<path fill="#21519D" opacity="1.000000" stroke="none" 
	d="
M296.563293,107.987953 
	C295.057068,109.315834 293.255646,111.475739 291.177612,111.786682 
	C285.635529,112.615974 279.976807,112.899902 274.360260,112.952148 
	C259.222534,113.092987 244.078964,113.211632 228.944550,112.946800 
	C210.046707,112.616127 191.156067,111.880814 172.260925,111.371681 
	C171.134750,111.341331 169.996277,111.767242 168.479767,111.986862 
	C168.009140,111.569389 167.922287,111.145882 167.849594,110.398071 
	C171.036682,109.049187 174.204620,107.151573 177.383301,107.133423 
	C214.015762,106.924248 250.649872,106.977592 287.283417,107.042297 
	C290.236816,107.047516 293.189148,107.651329 296.563293,107.987953 
z"/>
<path fill="#C39425" opacity="1.000000" stroke="none" 
	d="
M63.238564,152.257416 
	C71.985992,152.030914 75.854538,147.778290 77.101326,137.338440 
	C77.431313,134.575317 79.098328,131.974792 80.130287,129.291489 
	C80.772125,127.622566 81.640961,125.985741 81.948738,124.252960 
	C83.386345,116.159241 84.659225,108.036331 86.008774,99.926804 
	C86.116394,99.280159 86.152603,98.413307 86.570213,98.057632 
	C93.536736,92.124138 90.729614,83.360641 92.837631,76.038391 
	C93.763634,72.821884 94.466278,70.379402 98.547523,70.466873 
	C98.937309,77.948578 98.914719,84.972107 98.511719,92.010315 
	C97.547844,93.248245 96.757202,94.420776 96.441788,95.709618 
	C96.152435,96.891998 96.833168,99.030296 96.301765,99.323051 
	C91.345390,102.053566 92.428093,106.756531 91.919472,111.064598 
	C91.607117,113.710312 90.644547,116.313255 89.729576,118.847168 
	C87.414658,125.258133 86.309113,131.999954 83.243156,138.268448 
	C81.160706,142.526123 80.900597,147.780182 80.345703,152.647949 
	C79.868408,156.835037 77.794106,158.446579 73.850937,158.262238 
	C73.850937,158.262238 73.794846,158.229080 73.679611,157.932281 
	C72.912262,157.473984 72.260147,157.312469 71.608032,157.150970 
	C68.884697,155.610641 66.161369,154.070312 63.238564,152.257416 
z"/>
<path fill="#DCB219" opacity="1.000000" stroke="none" 
	d="
M51.924877,44.859211 
	C54.556099,42.805340 57.187325,40.751472 60.581425,38.840824 
	C65.981163,41.088272 64.197014,44.977356 63.338047,48.017590 
	C62.000980,52.750057 60.216541,57.449535 57.931492,61.800514 
	C53.715275,69.828636 56.056137,79.964035 49.517208,87.188507 
	C49.044262,87.711037 49.114838,88.765030 49.017666,89.582031 
	C48.103519,97.267830 46.932869,104.810417 42.841591,111.691879 
	C41.490486,113.964417 41.562077,117.087051 41.003883,119.825211 
	C40.651718,121.552711 40.337948,123.288033 39.773941,125.008202 
	C39.540928,124.996552 39.074379,124.989204 39.074379,124.989204 
	C38.050381,122.566216 37.026379,120.143227 36.344234,117.180267 
	C37.028385,114.192856 36.610729,111.226807 37.859001,109.397614 
	C41.266464,104.404381 42.200886,99.566330 39.807701,94.276726 
	C41.245701,92.121696 42.056683,89.876411 42.676384,87.579521 
	C42.871937,86.854721 42.172985,85.603973 42.531136,85.250801 
	C47.106224,80.739403 46.984459,75.178925 46.881870,69.306381 
	C46.780621,63.510082 52.025352,58.352680 49.405849,52.053890 
	C49.347630,51.913902 49.769398,51.574295 50.175545,51.068336 
	C51.204231,51.519958 52.283936,51.993977 53.354900,52.464161 
	C54.202530,50.611122 54.926315,49.028824 55.713463,47.308002 
	C54.341293,46.421085 53.133087,45.640148 51.924877,44.859211 
z"/>
<path fill="#D9AF19" opacity="1.000000" stroke="none" 
	d="
M40.006958,125.019852 
	C40.337948,123.288033 40.651718,121.552711 41.003883,119.825211 
	C41.562077,117.087051 41.490486,113.964417 42.841591,111.691879 
	C46.932869,104.810417 48.103519,97.267830 49.017666,89.582031 
	C49.114838,88.765030 49.044262,87.711037 49.517208,87.188507 
	C56.056137,79.964035 53.715275,69.828636 57.931492,61.800514 
	C60.216541,57.449535 62.000980,52.750057 63.338047,48.017590 
	C64.197014,44.977356 65.981163,41.088272 60.923164,38.911354 
	C63.735565,36.623211 66.969101,34.407761 70.518356,32.057304 
	C70.557076,34.264435 70.490440,36.654766 69.966827,38.940407 
	C67.648026,49.062302 65.334824,59.189266 62.752155,69.245720 
	C60.679977,77.314384 59.309944,85.825668 55.656700,93.158226 
	C51.292637,101.917496 53.050674,111.980560 48.153095,120.424126 
	C46.834778,122.696938 46.961338,125.807846 46.271980,129.309555 
	C44.314556,128.505997 42.604698,127.804054 40.534378,127.045044 
	C40.173916,126.987968 39.972412,126.593300 39.981670,126.089630 
	C39.996269,125.397263 40.001610,125.208557 40.006958,125.019852 
z"/>
<path fill="#1E7038" opacity="1.000000" stroke="none" 
	d="
M116.008690,47.996223 
	C119.877365,44.506557 123.746040,41.016895 128.174301,37.421642 
	C133.277954,37.542820 137.822449,37.761826 142.366058,37.997833 
	C155.157700,38.662273 167.946274,39.395729 180.742508,39.954506 
	C183.593231,40.078987 185.193115,40.959705 184.964661,44.349407 
	C182.969482,46.491608 181.017746,48.292099 178.978363,49.715996 
	C178.250931,48.919125 177.582123,48.098381 176.975998,48.142307 
	C172.380707,48.475315 167.805573,49.187939 163.208344,49.360012 
	C159.603546,49.494942 155.955826,49.194424 152.366745,48.760223 
	C150.350998,48.516361 148.422241,47.124252 146.442642,47.097065 
	C141.850479,47.033985 137.223358,47.915314 132.662003,47.619133 
	C127.068741,47.255951 121.520203,45.590427 116.008690,47.996223 
z"/>
<path fill="#1D8D46" opacity="1.000000" stroke="none" 
	d="
M103.559204,68.211830 
	C104.626656,67.382942 105.425385,66.227905 106.175835,66.258453 
	C111.795906,66.487251 117.408173,66.927567 123.018990,67.352936 
	C124.811424,67.488838 126.586357,67.867844 128.379135,67.984772 
	C138.754990,68.661491 149.176453,68.915619 159.495392,70.082886 
	C165.593155,70.772667 166.694809,73.098549 166.004211,79.634171 
	C156.941711,79.657509 147.865860,79.561707 138.835739,78.869461 
	C135.455948,78.610367 132.214661,76.245453 128.854202,76.095428 
	C121.652328,75.773903 114.414467,76.302879 107.190231,76.405975 
	C105.425209,76.431160 103.655914,76.156914 101.502762,76.012665 
	C101.834000,73.481575 102.551056,70.958145 103.559204,68.211830 
z"/>
<path fill="#DEB719" opacity="1.000000" stroke="none" 
	d="
M51.625210,45.025547 
	C53.133087,45.640148 54.341293,46.421085 55.713463,47.308002 
	C54.926315,49.028824 54.202530,50.611122 53.354900,52.464161 
	C52.283936,51.993977 51.204231,51.519958 50.175545,51.068336 
	C49.769398,51.574295 49.347630,51.913902 49.405849,52.053890 
	C52.025352,58.352680 46.780621,63.510082 46.881870,69.306381 
	C46.984459,75.178925 47.106224,80.739403 42.531136,85.250801 
	C42.172985,85.603973 42.871937,86.854721 42.676384,87.579521 
	C42.056683,89.876411 41.245701,92.121696 39.807701,94.276726 
	C42.200886,99.566330 41.266464,104.404381 37.859001,109.397614 
	C36.610729,111.226807 37.028385,114.192856 36.388100,116.811096 
	C31.891760,108.075607 31.598423,98.611557 31.955982,89.015350 
	C32.270046,80.586525 35.051094,73.081474 38.473656,65.378487 
	C41.816505,57.854908 45.914356,51.206844 51.625210,45.025547 
z"/>
<path fill="#E7AD37" opacity="1.000000" stroke="none" 
	d="
M115.039932,221.353394 
	C114.594200,221.227356 114.148460,221.101334 113.131866,220.763123 
	C111.365669,220.053314 110.170319,219.555679 108.974968,219.058060 
	C108.974968,219.058060 108.996506,219.000839 108.855591,218.708435 
	C107.865967,217.537979 107.017258,216.659943 106.168549,215.781891 
	C106.168549,215.781891 106.122986,215.894821 106.117622,215.590118 
	C105.772537,214.777496 105.432808,214.269562 105.093079,213.761642 
	C105.093079,213.761642 105.128311,213.337189 105.010223,212.894043 
	C104.620605,212.232346 104.349083,212.013779 104.077560,211.795212 
	C104.038040,208.168503 103.998520,204.541809 104.135223,200.172791 
	C107.848335,191.220551 113.798592,186.909302 123.005257,187.858612 
	C123.005257,187.858612 123.442657,188.054153 123.804413,188.341461 
	C124.782089,188.939774 125.398010,189.250778 126.013931,189.561768 
	C126.189629,189.574768 126.365318,189.587784 127.038681,189.884186 
	C128.966110,191.290848 130.395889,192.414139 131.825653,193.537445 
	C131.825653,193.537445 131.813339,193.824097 131.917770,194.277222 
	C132.965408,196.983307 133.908615,199.236267 134.851822,201.489212 
	C134.860336,202.134109 134.868851,202.778992 134.930664,204.119339 
	C133.985672,208.540314 132.987411,212.265854 131.989151,215.991379 
	C131.989151,215.991379 132.000000,216.000000 131.686981,216.138336 
	C128.543259,218.076782 125.712540,219.876892 122.881821,221.676987 
	C122.148560,221.784805 121.415298,221.892624 120.005264,222.043793 
	C118.895485,222.135101 118.462479,222.183075 118.029472,222.231049 
	C117.581245,222.153290 117.133018,222.075516 116.249603,221.803146 
	C115.617233,221.338394 115.359070,221.253342 115.039932,221.353394 
M116.503517,194.976593 
	C111.060310,198.750687 109.998322,208.271576 114.425064,213.610229 
	C117.507378,217.327499 121.105110,218.040482 123.170082,214.490967 
	C125.207069,210.989578 126.728790,206.566559 126.631714,202.592926 
	C126.490166,196.799255 122.473145,194.096527 116.503517,194.976593 
z"/>
<path fill="#1D7B3D" opacity="1.000000" stroke="none" 
	d="
M116.002762,47.998459 
	C121.520203,45.590427 127.068741,47.255951 132.662003,47.619133 
	C137.223358,47.915314 141.850479,47.033985 146.442642,47.097065 
	C148.422241,47.124252 150.350998,48.516361 152.366745,48.760223 
	C155.955826,49.194424 159.603546,49.494942 163.208344,49.360012 
	C167.805573,49.187939 172.380707,48.475315 176.975998,48.142307 
	C177.582123,48.098381 178.250931,48.919125 178.966675,50.086029 
	C177.715759,52.561100 176.388870,54.289543 175.061966,56.017990 
	C173.257843,58.654274 171.139908,58.735996 167.898987,58.367905 
	C160.055252,57.477039 152.060226,58.011745 144.172272,57.388561 
	C137.052475,56.826061 129.983749,55.554962 122.912750,54.465023 
	C119.711884,53.971634 116.560066,53.160126 113.152481,52.177715 
	C113.474602,51.004810 114.030228,50.147129 115.060310,49.030754 
	C115.765923,48.565987 115.919525,48.312836 115.995575,48.012615 
	C115.995575,48.012615 115.996826,48.000694 116.002762,47.998459 
z"/>
<path fill="#BF9024" opacity="1.000000" stroke="none" 
	d="
M74.068062,158.559555 
	C77.794106,158.446579 79.868408,156.835037 80.345703,152.647949 
	C80.900597,147.780182 81.160706,142.526123 83.243156,138.268448 
	C86.309113,131.999954 87.414658,125.258133 89.729576,118.847168 
	C90.644547,116.313255 91.607117,113.710312 91.919472,111.064598 
	C92.428093,106.756531 91.345390,102.053566 96.301765,99.323051 
	C96.833168,99.030296 96.152435,96.891998 96.441788,95.709618 
	C96.757202,94.420776 97.547844,93.248245 98.446075,92.279526 
	C98.843040,93.609894 98.925247,94.685730 98.995407,96.207382 
	C99.126419,98.451904 99.162239,100.266884 99.432121,102.046371 
	C100.340073,108.033005 101.331329,114.007004 101.977219,119.844604 
	C100.994240,119.336441 99.758774,118.616425 99.735992,118.652954 
	C98.126396,121.232971 95.552841,123.781250 95.314362,126.527977 
	C94.823853,132.177597 93.851730,137.263153 91.398148,142.601257 
	C88.711205,148.447067 88.410362,155.389603 87.021034,161.924133 
	C86.972404,161.994095 86.916740,162.155151 86.916740,162.155151 
	C82.706223,161.055725 78.495705,159.956299 74.068062,158.559555 
z"/>
<path fill="#E6AD36" opacity="1.000000" stroke="none" 
	d="
M52.036278,202.384552 
	C52.468071,202.457031 52.899864,202.529495 54.086380,202.634125 
	C56.456631,202.766235 58.072155,202.866165 60.166691,202.995712 
	C60.166691,207.316544 59.983837,211.435486 60.218834,215.530441 
	C60.447399,219.513290 58.239674,220.878799 54.885571,221.060623 
	C51.258312,221.257248 47.615841,221.173325 43.980007,221.211761 
	C43.815590,221.158264 43.651176,221.104767 43.020336,220.747650 
	C36.411911,219.322464 34.603855,214.112503 32.198177,209.466309 
	C29.860374,194.718689 43.372448,185.005524 56.812412,188.667465 
	C57.969975,188.982864 58.872150,190.235596 59.632675,191.608856 
	C59.263523,192.775696 59.154663,193.386581 59.045795,193.997452 
	C58.261581,194.664429 57.477375,195.331406 56.079948,195.685699 
	C50.536724,194.708344 45.543770,193.815308 42.231773,199.020920 
	C41.749931,199.623505 41.268093,200.226089 40.509903,201.454422 
	C39.663464,209.887024 41.346130,212.915909 47.788010,215.678589 
	C48.048500,215.751221 48.308990,215.823853 49.314243,215.925140 
	C53.843674,215.233383 54.501919,212.652374 51.953106,208.526917 
	C51.206882,208.411560 50.460659,208.296188 49.141918,208.083771 
	C48.410942,207.917374 48.252487,207.848038 48.094028,207.778702 
	C48.110744,206.506973 48.127460,205.235245 48.502613,203.452209 
	C49.919460,202.755432 50.977871,202.569992 52.036278,202.384552 
z"/>
<path fill="#B2832A" opacity="1.000000" stroke="none" 
	d="
M131.890350,153.074722 
	C131.912628,153.452866 131.934891,153.831024 131.984863,154.491058 
	C117.958359,161.653534 103.432907,165.856064 87.254929,162.372223 
	C86.916740,162.155151 86.972404,161.994095 87.397980,161.917099 
	C92.326149,161.840103 96.828743,161.840103 100.677536,161.840103 
	C102.296898,159.096405 104.289520,157.054398 104.737320,154.716492 
	C106.197983,147.090378 107.094917,139.356293 108.537453,131.773712 
	C110.044037,133.231445 111.285332,134.529449 112.389046,135.935455 
	C117.827187,142.863007 123.439491,149.579803 131.890350,153.074722 
z"/>
<path fill="#1D6634" opacity="1.000000" stroke="none" 
	d="
M185.008072,44.007698 
	C185.193115,40.959705 183.593231,40.078987 180.742508,39.954506 
	C167.946274,39.395729 155.157700,38.662273 142.366058,37.997833 
	C137.822449,37.761826 133.277954,37.542820 128.401123,37.175018 
	C129.455597,36.102341 130.842834,35.170696 132.866150,34.095238 
	C134.309067,33.597000 135.115921,33.242577 135.922760,32.888153 
	C135.922760,32.888157 136.013397,32.927715 136.327362,32.938774 
	C137.738968,32.265369 138.836594,31.580908 139.934219,30.896442 
	C139.934219,30.896441 140.003662,30.994123 140.369446,30.979609 
	C145.991440,30.976435 151.249557,30.907942 156.503006,31.034319 
	C158.962814,31.093491 161.407959,31.612247 163.869507,31.777529 
	C170.301178,32.209385 176.738190,32.561211 183.839706,32.984699 
	C185.412994,37.038525 186.078445,37.164047 190.563828,33.167183 
	C191.257706,32.548893 192.295868,32.316967 193.174805,31.906366 
	C193.174805,31.906368 193.588425,31.905006 193.929718,32.263702 
	C194.514008,33.736732 194.756989,34.851067 194.946167,36.305435 
	C191.597580,39.099545 188.302826,41.553619 185.008072,44.007698 
z"/>
<path fill="#E8AE35" opacity="1.000000" stroke="none" 
	d="
M85.001259,200.942078 
	C86.071037,200.999252 87.140816,201.056427 88.956619,201.162918 
	C90.440773,201.207489 91.178886,201.202744 91.917007,201.197998 
	C91.917007,201.197998 91.940361,201.069916 91.928680,201.508240 
	C91.928314,203.950119 91.939629,205.953659 91.950943,207.957199 
	C88.603081,207.978516 85.255219,207.999817 81.073441,208.251251 
	C80.239532,210.740875 80.239532,213.000381 80.239532,216.019119 
	C84.319649,216.019119 88.214600,216.019119 92.223969,216.257446 
	C92.635727,216.678131 92.933052,216.860504 93.335724,217.401276 
	C93.368584,218.495712 93.296089,219.231766 92.738220,219.982574 
	C86.455971,219.997330 80.659088,219.997330 73.660881,219.997330 
	C74.144745,209.186447 74.609612,198.799927 75.079681,188.299042 
	C75.084877,188.184677 75.009590,187.968445 75.335693,188.050659 
	C76.102615,188.068481 76.543434,188.004105 77.245712,188.048706 
	C77.684769,188.221909 77.862350,188.286118 78.205902,188.514648 
	C78.927132,188.570175 79.482391,188.461411 80.039566,188.245117 
	C80.041466,188.137573 79.983017,187.930542 79.983017,187.930542 
	C82.694519,187.989822 85.406029,188.049118 88.809959,188.091827 
	C89.666267,188.021957 89.830147,187.968674 89.994026,187.915390 
	C90.156830,187.984543 90.319626,188.053696 90.790497,188.590454 
	C92.684036,192.356033 91.634338,193.869354 87.990463,194.069153 
	C85.370613,194.212814 82.774406,194.787521 80.127335,195.593948 
	C80.087029,197.621033 80.087029,199.224106 80.087029,201.160553 
	C82.091209,201.071457 83.546234,201.006775 85.001259,200.942078 
z"/>
<path fill="#ECECEC" opacity="1.000000" stroke="none" 
	d="
M224.764008,211.774536 
	C222.973145,211.758728 221.625443,211.879639 220.315414,211.709961 
	C216.834656,211.259094 215.233597,212.481812 214.914810,216.203049 
	C214.523117,220.775375 213.921646,221.005295 209.071915,221.009781 
	C212.584686,210.100052 216.065811,199.288589 219.610214,188.280609 
	C221.097992,188.280609 222.725006,188.280609 224.812469,188.280609 
	C228.268066,198.962585 231.773605,209.798935 235.274490,220.620880 
	C231.610886,222.298691 230.852783,220.211685 229.700607,217.693069 
	C228.702484,215.511215 229.726639,211.401474 224.764008,211.774536 
M218.874527,207.961777 
	C221.551956,207.961777 224.229370,207.961777 227.225586,207.961777 
	C225.390793,203.000717 223.842041,198.813141 221.843765,193.410049 
	C220.430878,198.716415 219.244781,203.171097 218.874527,207.961777 
z"/>
<path fill="#F4F4F4" opacity="1.000000" stroke="none" 
	d="
M293.571167,192.098282 
	C289.975891,192.098343 286.833954,192.098343 283.483917,192.098343 
	C283.483917,195.614960 283.483917,198.730194 283.483917,202.123154 
	C287.587799,202.596756 291.559509,203.037430 295.515198,203.592346 
	C295.640472,203.609924 295.600922,204.802551 295.664154,205.896378 
	C291.581940,205.896378 287.644165,205.896378 283.550903,205.896378 
	C283.550903,209.925095 283.550903,213.509476 283.550903,217.799561 
	C287.513947,217.799561 291.276672,217.703049 295.027344,217.872986 
	C295.878204,217.911545 296.687164,218.874481 297.515411,219.411942 
	C296.746735,220.009766 295.992340,221.102859 295.207062,221.125488 
	C289.894867,221.278641 284.576111,221.205429 279.222778,221.205429 
	C279.222778,210.113480 279.222778,199.342789 279.222778,188.349213 
	C284.900299,188.349213 290.343170,188.349213 297.710571,188.349213 
	C295.920593,190.169739 294.972534,191.133972 293.571167,192.098282 
z"/>
<path fill="#1E5A30" opacity="1.000000" stroke="none" 
	d="
M192.966797,31.612194 
	C192.295868,32.316967 191.257706,32.548893 190.563828,33.167183 
	C186.078445,37.164047 185.412994,37.038525 183.839706,32.984699 
	C176.738190,32.561211 170.301178,32.209385 163.869507,31.777529 
	C161.407959,31.612247 158.962814,31.093491 156.503006,31.034319 
	C151.249557,30.907942 145.991440,30.976435 140.330078,30.934954 
	C142.878906,29.682940 145.778336,28.302074 148.796234,27.266439 
	C162.597672,22.530277 176.110138,24.978140 189.500320,29.179771 
	C190.692719,29.553932 191.677567,30.589590 192.966797,31.612194 
z"/>
<path fill="#F4F4F4" opacity="1.000000" stroke="none" 
	d="
M248.028488,221.167267 
	C247.406158,220.553101 247.020020,219.959839 247.017853,219.365173 
	C246.980789,209.222473 246.991257,199.079590 246.991257,189.018265 
	C258.774506,186.065201 265.469055,189.524338 266.863068,196.331360 
	C268.418121,203.924698 263.392029,207.822678 251.015228,208.777466 
	C251.015228,211.912979 251.228989,215.092438 250.897156,218.213913 
	C250.783813,219.280014 249.300659,220.200485 248.028488,221.167267 
M251.004700,201.200378 
	C251.708923,202.440674 252.690796,204.831451 253.073410,204.739120 
	C256.115479,204.004974 259.501221,203.362671 261.806213,201.491058 
	C262.893097,200.608551 262.737579,195.861847 261.575012,195.010818 
	C258.840698,193.009247 255.162262,192.297470 251.004501,190.741455 
	C251.004501,195.028290 251.004501,197.650925 251.004700,201.200378 
z"/>
<path fill="#EFEFEF" opacity="1.000000" stroke="none" 
	d="
M153.372009,192.103149 
	C148.852814,197.162216 149.168137,198.924759 154.690842,202.040131 
	C155.695999,202.607147 156.637634,203.304733 157.681854,203.781601 
	C163.703613,206.531479 165.474197,209.869812 163.952820,215.742340 
	C163.014252,219.365234 156.891953,222.673294 152.041000,221.917694 
	C149.782303,221.565842 147.611389,220.650497 145.047424,219.885147 
	C145.385574,218.553970 145.684982,217.375336 146.024826,216.037445 
	C146.724823,216.215591 147.165329,216.326279 147.605087,216.439850 
	C149.799789,217.006531 152.128265,218.307663 154.151733,217.938065 
	C156.241394,217.556381 158.944778,215.950531 159.732513,214.156830 
	C160.775223,211.782562 159.722855,209.329453 156.625641,207.846100 
	C153.229065,206.219345 149.597748,204.145157 147.351608,201.265350 
	C143.629028,196.492630 147.244858,188.825745 153.269394,188.123215 
	C156.421753,187.755600 159.697617,188.447021 163.523468,188.700241 
	C161.420731,195.797867 156.514572,190.103409 153.372009,192.103149 
z"/>
<path fill="#EFEFEF" opacity="1.000000" stroke="none" 
	d="
M185.622589,216.617584 
	C189.977707,217.225433 193.989120,217.621078 199.041306,218.119370 
	C198.405640,218.901474 197.797638,220.402405 196.763870,220.802094 
	C188.646805,223.940323 179.308624,220.795334 176.151367,213.258530 
	C173.544617,207.035858 173.876526,196.619644 181.552338,191.209137 
	C186.406143,187.787796 191.032150,187.839096 196.063690,188.293106 
	C197.266068,188.401611 198.303040,190.343430 198.948975,191.879410 
	C184.663498,190.542130 182.395172,194.325485 179.481750,201.170624 
	C177.157516,206.631454 180.134415,213.493546 185.622589,216.617584 
z"/>
<path fill="#0A0404" opacity="1.000000" stroke="none" 
	d="
M92.109543,216.019119 
	C88.214600,216.019119 84.319649,216.019119 80.239532,216.019119 
	C80.239532,213.000381 80.239532,210.740875 80.625809,208.342590 
	C81.500595,209.948608 81.989105,211.693420 82.551865,213.703430 
	C86.818047,213.703430 91.055794,213.703430 96.328781,213.703430 
	C95.318123,217.195496 94.497856,220.585175 93.232613,223.799713 
	C93.043839,224.279327 90.644615,224.296356 89.473366,223.908005 
	C85.416695,222.562897 81.595551,221.824799 78.595390,225.933182 
	C77.046005,224.585770 75.630234,223.354538 74.557732,221.689392 
	C78.391502,221.236404 81.891312,221.366623 85.369461,221.149597 
	C88.001839,220.985352 90.606567,220.377991 93.223602,219.967819 
	C93.296089,219.231766 93.368584,218.495712 93.335602,217.084381 
	C92.856598,216.279114 92.483070,216.149124 92.109543,216.019119 
z"/>
<path fill="#E9E9E9" opacity="1.000000" stroke="none" 
	d="
M77.127426,235.785889 
	C78.294586,236.488739 79.533691,237.037659 79.853928,237.920044 
	C81.247131,241.758972 82.372818,245.694977 83.994888,250.869003 
	C82.361671,249.616486 81.462112,248.975449 80.618469,248.267776 
	C79.447044,247.285202 78.184570,245.324768 77.202255,245.465591 
	C75.833855,245.661713 74.644875,247.369522 73.468193,248.521378 
	C72.963600,249.015335 72.683067,249.738174 72.300728,250.357040 
	C71.757484,250.109497 71.214249,249.861954 70.671005,249.614410 
	C72.706169,245.004761 74.741341,240.395096 77.127426,235.785889 
z"/>
<path fill="#30814F" opacity="1.000000" stroke="none" 
	d="
M147.226166,160.292862 
	C151.686844,160.689987 156.411514,161.398300 161.152084,161.976013 
	C163.358414,162.244888 165.046463,161.802338 165.012085,158.891724 
	C164.829834,143.461639 164.743469,128.030426 164.314789,111.859848 
	C164.337997,108.114677 164.670303,105.109268 165.239960,102.092117 
	C165.477310,102.080383 165.952393,102.067070 165.952393,102.067070 
	C165.991928,102.818985 166.031448,103.570908 166.088364,104.698685 
	C166.105743,124.454765 166.105743,143.834976 166.105743,164.588242 
	C159.442719,163.142548 153.469681,161.846573 147.226166,160.292862 
z"/>
<path fill="#140B06" opacity="1.000000" stroke="none" 
	d="
M44.039444,221.555801 
	C47.615841,221.173325 51.258312,221.257248 54.885571,221.060623 
	C58.239674,220.878799 60.447399,219.513290 60.218834,215.530441 
	C59.983837,211.435486 60.166691,207.316544 60.166691,202.995712 
	C58.072155,202.866165 56.456631,202.766235 54.401173,202.525787 
	C56.578800,201.521637 59.196358,200.657990 61.566689,199.875916 
	C62.144489,202.325974 62.621490,204.348618 62.855179,205.339523 
	C62.154976,209.127289 61.055622,212.096497 61.182224,215.012482 
	C61.441742,220.989731 60.616802,222.728333 54.994816,223.489929 
	C51.952332,223.902084 48.809681,223.690353 45.721981,223.548126 
	C45.156841,223.522095 44.638710,222.475403 44.039444,221.555801 
z"/>
<path fill="#E2E2E2" opacity="1.000000" stroke="none" 
	d="
M252.520126,243.275177 
	C251.661942,244.687759 251.235748,246.078354 250.725433,247.743439 
	C253.585022,247.969070 255.761658,248.140808 257.938293,248.312561 
	C257.967041,248.708694 257.995789,249.104843 258.024506,249.500992 
	C255.249207,249.500992 252.473877,249.500992 249.426300,249.500992 
	C249.426300,245.376678 249.426300,240.949219 249.426300,236.131134 
	C252.054871,236.131134 254.728943,236.131134 257.618134,236.131134 
	C256.281769,238.936569 250.065063,234.333267 251.234299,240.679626 
	C253.240204,240.870056 255.267624,241.062531 257.295044,241.254990 
	C257.354126,241.670685 257.413239,242.086380 257.472321,242.502075 
	C255.965591,242.752457 254.458862,243.002823 252.520126,243.275177 
z"/>
<path fill="#AD9656" opacity="1.000000" stroke="none" 
	d="
M99.007454,95.761574 
	C98.925247,94.685730 98.843040,93.609894 98.826477,92.264839 
	C98.914719,84.972107 98.937309,77.948578 98.923347,70.456085 
	C98.916260,56.743389 98.938293,43.499641 98.982475,30.255976 
	C98.989929,28.022324 99.186005,25.720396 95.416290,26.021549 
	C93.786652,26.007126 92.577866,25.970150 90.914963,25.876202 
	C93.421906,25.252768 96.382965,24.686306 100.215279,23.953169 
	C100.215279,42.287518 100.215279,59.832989 100.524384,77.648087 
	C100.559151,82.951653 100.284805,87.985588 99.898155,93.727493 
	C99.526390,94.877510 99.266922,95.319542 99.007454,95.761574 
z"/>
<path fill="#ECECEC" opacity="1.000000" stroke="none" 
	d="
M210.344055,246.457977 
	C210.625061,247.875031 210.788223,248.934052 210.951385,249.993057 
	C206.910553,245.767761 203.271423,240.371887 199.806747,251.582581 
	C198.485001,243.127609 201.404373,239.386826 207.641495,239.998856 
	C208.467773,241.949203 209.347000,244.024567 210.344055,246.457977 
z"/>
<path fill="#DEDEDE" opacity="1.000000" stroke="none" 
	d="
M156.476013,241.355377 
	C159.378281,243.200653 161.677719,245.231567 159.231659,248.278839 
	C157.114853,250.915939 154.134705,251.625046 151.099854,249.134506 
	C151.376846,248.637314 151.472717,248.201721 151.672821,248.146973 
	C153.594528,247.621124 155.533813,247.159515 157.468063,246.679474 
	C156.081894,245.291992 154.330994,244.107788 153.412445,242.459686 
	C152.499817,240.822144 152.424225,238.718094 151.981567,236.818619 
	C154.264969,236.334381 156.548355,235.850143 158.831741,235.365906 
	C158.927994,235.781464 159.024246,236.197021 159.120499,236.612579 
	C157.182968,237.103775 155.245438,237.594971 152.365662,238.325043 
	C154.276474,239.684769 155.242813,240.372406 156.476013,241.355377 
z"/>
<path fill="#ECECEC" opacity="1.000000" stroke="none" 
	d="
M228.935272,244.032654 
	C227.784134,245.932861 227.059265,247.827225 226.154999,250.190384 
	C226.154999,245.436661 226.154999,240.997513 226.154999,236.176224 
	C229.047195,236.338394 233.407822,233.568909 234.747070,238.823975 
	C235.629730,242.287445 233.125061,244.302521 228.935272,244.032654 
M226.999313,239.345612 
	C227.586319,240.438202 228.173340,241.530777 228.760361,242.623367 
	C229.775833,241.946609 231.128601,241.470428 231.691162,240.524353 
	C232.082458,239.866287 231.388275,238.562805 231.179016,237.547623 
	C229.783646,237.870804 228.388260,238.193970 226.999313,239.345612 
z"/>
<path fill="#EAEAEA" opacity="1.000000" stroke="none" 
	d="
M48.962761,243.052307 
	C48.962765,240.333359 48.962765,238.069626 48.962765,234.442337 
	C53.872101,238.952103 50.556942,243.928864 52.326527,247.765930 
	C54.219894,247.993439 56.145668,248.224838 58.071442,248.456238 
	C58.042992,248.863953 58.014542,249.271652 57.986095,249.679352 
	C55.089512,249.679352 52.192928,249.679352 48.962761,249.679352 
	C48.962761,247.746429 48.962761,245.626968 48.962761,243.052307 
z"/>
<path fill="#0A0404" opacity="1.000000" stroke="none" 
	d="
M122.897827,187.480957 
	C113.798592,186.909302 107.848335,191.220551 104.100037,199.716797 
	C103.289131,198.865768 101.908112,197.041763 102.210884,196.697174 
	C105.287750,193.195206 108.148407,189.010971 112.081055,186.921173 
	C114.839615,185.455292 119.164825,186.937592 122.897827,187.480957 
z"/>
<path fill="#D4AA58" opacity="1.000000" stroke="none" 
	d="
M92.738220,219.982574 
	C90.606567,220.377991 88.001839,220.985352 85.369461,221.149597 
	C81.891312,221.366623 78.391502,221.236404 74.446899,221.378937 
	C73.812355,221.430649 73.631905,221.358871 73.197754,220.680176 
	C72.939720,210.766602 72.854698,201.458450 73.026215,192.155014 
	C73.049431,190.895660 74.359993,189.660019 75.074478,188.413406 
	C74.609612,198.799927 74.144745,209.186447 73.660881,219.997330 
	C80.659088,219.997330 86.455971,219.997330 92.738220,219.982574 
z"/>
<path fill="#F9F9F9" opacity="1.000000" stroke="none" 
	d="
M127.157333,239.010315 
	C127.157333,241.935852 127.157333,244.861389 127.157333,248.244720 
	C129.055511,247.990356 130.769165,247.760727 132.661438,247.596603 
	C132.969574,247.787506 133.099060,247.912918 133.228546,248.038345 
	C130.418274,249.051666 127.607994,250.064972 124.007401,251.363251 
	C124.007401,246.012466 123.819588,242.082336 124.151901,238.196701 
	C124.226242,237.327377 126.124199,236.614029 127.631012,236.166351 
	C127.772072,237.339325 127.464699,238.174820 127.157333,239.010315 
z"/>
<path fill="#0A0404" opacity="1.000000" stroke="none" 
	d="
M75.079674,188.299042 
	C74.359993,189.660019 73.049431,190.895660 73.026215,192.155014 
	C72.854698,201.458450 72.939720,210.766602 72.940964,220.542633 
	C72.623932,217.967758 72.100700,214.927750 72.038734,211.878372 
	C71.901283,205.114517 71.984390,198.345932 71.998039,191.579300 
	C72.010399,185.451767 73.791763,184.452286 79.891373,187.550446 
	C79.983017,187.930542 80.041466,188.137573 79.710968,188.153259 
	C78.933624,188.229401 78.486786,188.289856 78.039940,188.350327 
	C77.862350,188.286118 77.684769,188.221909 77.095337,187.836273 
	C76.125526,187.666061 75.567558,187.817245 75.009590,187.968445 
	C75.009590,187.968445 75.084877,188.184677 75.079674,188.299042 
z"/>
<path fill="#F0F0F0" opacity="1.000000" stroke="none" 
	d="
M35.914070,247.112961 
	C34.409382,245.594330 33.287457,244.060623 32.165535,242.526901 
	C33.359425,241.675812 34.539623,240.181992 35.751087,240.156174 
	C36.938938,240.130890 39.294010,241.997513 39.172256,242.344513 
	C38.572212,244.054703 37.319332,245.535873 35.914070,247.112961 
z"/>
<path fill="#F1F1F1" opacity="1.000000" stroke="none" 
	d="
M292.291168,246.936462 
	C291.461609,244.735306 290.989105,242.664017 290.516602,240.592712 
	C290.985840,240.146027 291.455078,239.699341 291.924316,239.252640 
	C293.637024,240.375916 295.349762,241.499176 297.062469,242.622437 
	C295.591064,244.103729 294.119629,245.585022 292.291168,246.936462 
z"/>
<path fill="#140B06" opacity="1.000000" stroke="none" 
	d="
M32.139420,209.889496 
	C34.603855,214.112503 36.411911,219.322464 42.761688,220.728607 
	C38.238644,223.129471 35.109837,219.878128 32.516293,217.093262 
	C31.321596,215.810455 32.162666,212.631744 32.139420,209.889496 
z"/>
<path fill="#D4D4D4" opacity="1.000000" stroke="none" 
	d="
M176.886322,249.230728 
	C175.557953,247.148300 174.556366,245.250244 173.554794,243.352203 
	C174.103622,242.936096 174.652466,242.519989 175.201294,242.103882 
	C175.784378,248.874161 180.898361,247.995285 185.304291,248.311737 
	C185.175430,248.967453 185.046570,249.623169 184.917709,250.278885 
	C182.349518,249.990967 179.781326,249.703049 176.886322,249.230728 
z"/>
<path fill="#DBDBDB" opacity="1.000000" stroke="none" 
	d="
M274.711670,235.847260 
	C276.278595,235.629562 277.464203,235.488953 279.180145,235.285446 
	C277.403381,237.011673 276.182648,238.197678 274.961914,239.383667 
	C276.591400,240.675690 278.220886,241.967728 279.850403,243.259766 
	C279.493561,243.766418 279.136749,244.273071 278.779938,244.779739 
	C276.597015,243.183151 274.258911,241.740585 272.377289,239.844940 
	C272.046967,239.512161 273.630646,237.279572 274.711670,235.847260 
z"/>
<path fill="#B9B9B9" opacity="1.000000" stroke="none" 
	d="
M109.076080,237.842041 
	C109.082718,242.180817 109.082718,246.111145 109.082718,251.411163 
	C106.566483,248.575531 103.412025,247.830994 106.794914,244.169601 
	C107.983200,242.883499 107.137047,239.726196 107.311508,237.430283 
	C107.314781,237.387115 108.458061,237.430573 109.076080,237.842041 
z"/>
<path fill="#0A0404" opacity="1.000000" stroke="none" 
	d="
M92.331650,207.972351 
	C91.939629,205.953659 91.928314,203.950119 91.864822,201.520844 
	C93.209351,201.501160 94.606064,201.907227 95.929642,202.292007 
	C96.864128,204.874420 97.793251,207.442017 98.788643,210.192734 
	C96.566841,209.386398 94.639595,208.686966 92.331650,207.972351 
z"/>
<path fill="#140B06" opacity="1.000000" stroke="none" 
	d="
M47.761024,215.273071 
	C41.346130,212.915909 39.663464,209.887024 40.507744,201.747925 
	C41.305557,203.617966 41.829178,205.820267 42.352798,208.022568 
	C42.751572,207.824783 43.150341,207.626999 43.549110,207.429214 
	C44.944088,209.908661 46.339062,212.388092 47.761024,215.273071 
z"/>
<path fill="#FAFAFA" opacity="1.000000" stroke="none" 
	d="
M100.011444,241.690155 
	C100.007156,244.789001 100.007156,247.458069 100.007156,250.127136 
	C99.516296,250.107101 99.025436,250.087082 98.534576,250.067047 
	C98.534576,245.389526 98.534576,240.712006 98.534576,236.034485 
	C98.860809,235.821518 99.187035,235.608536 99.513268,235.395569 
	C100.441994,236.811707 101.428123,238.198639 102.190948,239.699127 
	C102.252274,239.819748 100.776970,240.721573 100.011444,241.690155 
z"/>
<path fill="#0A0404" opacity="1.000000" stroke="none" 
	d="
M123.038223,222.022675 
	C125.712540,219.876892 128.543259,218.076782 131.682220,216.132965 
	C131.495209,222.505753 127.747581,225.223694 123.038223,222.022675 
z"/>
<path fill="#0A0404" opacity="1.000000" stroke="none" 
	d="
M84.929596,200.597748 
	C83.546234,201.006775 82.091209,201.071457 80.087029,201.160553 
	C80.087029,199.224106 80.087029,197.621033 80.572113,195.561340 
	C84.987999,195.021317 88.918800,194.937897 92.910973,194.915833 
	C92.972343,194.977173 93.092659,195.102249 93.092659,195.102264 
	C89.204842,195.923523 85.317024,196.744781 81.047211,197.646729 
	C82.262688,198.478149 83.560310,199.365768 84.929596,200.597748 
z"/>
<path fill="#100807" opacity="1.000000" stroke="none" 
	d="
M42.631622,199.019104 
	C45.543770,193.815308 50.536724,194.708344 55.736588,195.679596 
	C51.681454,196.996567 47.356461,198.006912 42.631622,199.019104 
z"/>
<path fill="#0E0E0E" opacity="1.000000" stroke="none" 
	d="
M127.509499,238.956528 
	C127.464699,238.174820 127.772072,237.339325 128.082047,236.132202 
	C130.371017,235.760574 132.657394,235.760574 135.232468,235.760574 
	C135.632416,237.129730 136.066025,238.614120 136.475983,240.017532 
	C133.626236,239.648743 130.743958,239.275742 127.509499,238.956528 
z"/>
<path fill="#0A0404" opacity="1.000000" stroke="none" 
	d="
M92.620224,188.191696 
	C94.382622,189.074905 96.145020,189.958099 97.907425,190.841293 
	C96.549767,192.232834 95.192101,193.624359 93.463547,195.059067 
	C93.092659,195.102249 92.972343,194.977173 92.920120,194.498260 
	C92.785339,192.076813 92.702782,190.134247 92.620224,188.191696 
z"/>
<path fill="#D4AA58" opacity="1.000000" stroke="none" 
	d="
M92.340729,188.216614 
	C92.702782,190.134247 92.785339,192.076813 92.858749,194.436920 
	C88.918800,194.937897 84.987999,195.021317 80.612427,195.137329 
	C82.774406,194.787521 85.370613,194.212814 87.990463,194.069153 
	C91.634338,193.869354 92.684036,192.356033 91.028625,188.707443 
	C91.326202,188.318375 91.693718,188.279968 92.340729,188.216614 
z"/>
<path fill="#0A0404" opacity="1.000000" stroke="none" 
	d="
M134.926697,201.057220 
	C133.908615,199.236267 132.965408,196.983307 132.032440,194.363434 
	C133.143631,193.516083 134.244583,193.035690 136.318710,192.130630 
	C135.805725,195.438965 135.403641,198.032089 134.926697,201.057220 
z"/>
<path fill="#0A0404" opacity="1.000000" stroke="none" 
	d="
M132.347275,215.934540 
	C132.987411,212.265854 133.985672,208.540314 135.058014,204.419464 
	C136.688538,208.459564 136.973572,212.634720 132.347275,215.934540 
z"/>
<path fill="#140B06" opacity="1.000000" stroke="none" 
	d="
M51.958378,208.895874 
	C54.501919,212.652374 53.843674,215.233383 49.716942,215.876358 
	C50.237804,213.620895 51.100727,211.442856 51.958378,208.895874 
z"/>
<path fill="#1B4075" opacity="1.000000" stroke="none" 
	d="
M182.029388,139.568176 
	C185.377502,138.415222 186.812576,140.115128 186.936279,143.805878 
	C185.335831,142.753632 183.764648,141.299911 182.029388,139.568176 
z"/>
<path fill="#0A0404" opacity="1.000000" stroke="none" 
	d="
M108.979080,219.466537 
	C110.170319,219.555679 111.365669,220.053314 112.782356,220.793549 
	C113.002426,221.776962 113.001152,222.517746 112.999939,223.629272 
	C113.000000,224.000000 112.999573,224.000610 112.999573,224.000610 
	C109.767265,224.468796 108.595642,222.930862 108.979080,219.466537 
z"/>
<path fill="#0A0404" opacity="1.000000" stroke="none" 
	d="
M131.871063,193.111511 
	C130.395889,192.414139 128.966110,191.290848 127.301437,189.912323 
	C128.415848,189.185272 129.765167,188.713440 131.670074,188.047333 
	C131.768402,189.898254 131.842422,191.291916 131.871063,193.111511 
z"/>
<path fill="#0E0E0E" opacity="1.000000" stroke="none" 
	d="
M133.484451,248.167419 
	C133.099060,247.912918 132.969574,247.787506 132.895645,247.397552 
	C133.410065,245.600311 133.868927,244.067627 134.481720,242.020737 
	C138.339081,245.099747 135.579285,246.631332 133.484451,248.167419 
z"/>
<path fill="#1E5A30" opacity="1.000000" stroke="none" 
	d="
M194.999985,35.965405 
	C194.756989,34.851067 194.514008,33.736732 194.132874,32.302402 
	C195.447052,32.313583 196.899368,32.644760 198.715515,33.073147 
	C199.079361,33.170361 199.038315,33.609020 198.788666,33.923157 
	C198.285583,34.423630 198.110046,34.666309 197.719360,35.099518 
	C196.617554,35.477608 195.808762,35.721504 194.999985,35.965405 
z"/>
<path fill="#1B4075" opacity="1.000000" stroke="none" 
	d="
M177.931610,134.362976 
	C178.759872,135.020477 179.641205,135.989288 180.233429,136.989212 
	C179.291122,136.238312 178.637894,135.456299 177.931610,134.362976 
z"/>
<path fill="#0A0404" opacity="1.000000" stroke="none" 
	d="
M106.124001,216.163574 
	C107.017258,216.659943 107.865967,217.537979 108.827614,218.720749 
	C107.986847,218.198746 107.033150,217.371994 106.124001,216.163574 
z"/>
<path fill="#140B06" opacity="1.000000" stroke="none" 
	d="
M51.924324,202.102005 
	C50.977871,202.569992 49.919460,202.755432 48.477303,203.071274 
	C49.333153,202.740921 50.572762,202.280197 51.924324,202.102005 
z"/>
<path fill="#1E5A30" opacity="1.000000" stroke="none" 
	d="
M139.593750,30.908897 
	C138.836594,31.580908 137.738968,32.265369 136.285278,32.909569 
	C137.037231,32.219990 138.145248,31.570667 139.593750,30.908897 
z"/>
<path fill="#1F4888" opacity="1.000000" stroke="none" 
	d="
M295.330597,116.983299 
	C295.466431,115.874344 295.832764,114.516121 296.557709,113.077118 
	C296.464569,114.242233 296.012817,115.488136 295.330597,116.983299 
z"/>
<path fill="#0A0404" opacity="1.000000" stroke="none" 
	d="
M125.941475,189.278015 
	C125.398010,189.250778 124.782089,188.939774 124.043747,188.331116 
	C124.570564,188.353729 125.219795,188.673996 125.941475,189.278015 
z"/>
<path fill="#0A0404" opacity="1.000000" stroke="none" 
	d="
M113.000290,223.999695 
	C113.504593,224.299454 114.008606,224.599533 114.512619,224.899597 
	C114.334251,225.106033 114.155884,225.312454 113.977516,225.518890 
	C113.676071,225.199890 113.374626,224.880905 113.036377,224.281250 
	C112.999573,224.000610 113.000000,224.000000 113.000290,223.999695 
z"/>
<path fill="#0A0404" opacity="1.000000" stroke="none" 
	d="
M91.784103,200.913300 
	C91.178886,201.202744 90.440773,201.207489 89.353546,201.090576 
	C89.886696,200.855484 90.768951,200.742035 91.784103,200.913300 
z"/>
<path fill="#1E5A30" opacity="1.000000" stroke="none" 
	d="
M135.578461,32.864838 
	C135.115921,33.242577 134.309067,33.597000 133.137665,33.916374 
	C133.593460,33.534725 134.413803,33.188122 135.578461,32.864838 
z"/>
<path fill="#BF9024" opacity="1.000000" stroke="none" 
	d="
M71.802032,157.414612 
	C72.260147,157.312469 72.912262,157.473984 73.689682,157.963272 
	C73.208679,158.086792 72.602356,157.882538 71.802032,157.414612 
z"/>
<path fill="#0A0404" opacity="1.000000" stroke="none" 
	d="
M77.736763,183.595886 
	C77.858353,183.443222 78.066795,183.421860 78.275238,183.400513 
	C78.124702,183.509415 77.974167,183.618317 77.736763,183.595886 
z"/>
<path fill="#1D447D" opacity="1.000000" stroke="none" 
	d="
M173.012634,126.283432 
	C173.324707,126.420631 173.641663,126.839760 173.986755,127.529533 
	C173.682449,127.388573 173.349976,126.976967 173.012634,126.283432 
z"/>
<path fill="#100807" opacity="1.000000" stroke="none" 
	d="
M59.288967,193.801636 
	C59.154663,193.386581 59.263523,192.775696 59.643452,191.992203 
	C59.787060,192.414993 59.659599,193.010406 59.288967,193.801636 
z"/>
<path fill="#0A0404" opacity="1.000000" stroke="none" 
	d="
M118.185562,222.415283 
	C118.462479,222.183075 118.895485,222.135101 119.650558,222.152618 
	C119.428963,222.345261 118.885307,222.472397 118.185562,222.415283 
z"/>
<path fill="#0A0404" opacity="1.000000" stroke="none" 
	d="
M105.084236,214.099243 
	C105.432808,214.269562 105.772537,214.777496 106.178505,215.590698 
	C105.854965,215.409592 105.465179,214.923203 105.084236,214.099243 
z"/>
<path fill="#1D447D" opacity="1.000000" stroke="none" 
	d="
M172.772736,123.989777 
	C172.979828,124.214813 172.962616,124.438065 172.893524,124.995132 
	C172.611267,125.058746 172.380890,124.788536 172.125198,124.248856 
	C172.099899,123.979393 172.548431,123.987976 172.772736,123.989777 
z"/>
<path fill="#1E7038" opacity="1.000000" stroke="none" 
	d="
M115.792908,48.122849 
	C115.919525,48.312836 115.765923,48.565987 115.349808,48.897385 
	C115.184830,48.693874 115.326622,48.430660 115.792908,48.122849 
z"/>
<path fill="#D4A91C" opacity="1.000000" stroke="none" 
	d="
M39.773941,125.008202 
	C40.001610,125.208557 39.996269,125.397263 39.963356,125.868820 
	C39.651764,125.945831 39.367737,125.739998 39.079044,125.261688 
	C39.074379,124.989204 39.540928,124.996552 39.773941,125.008202 
z"/>
<path fill="#0A0404" opacity="1.000000" stroke="none" 
	d="
M115.161880,221.511505 
	C115.359070,221.253342 115.617233,221.338394 115.907364,221.804276 
	C115.726707,221.965271 115.487885,221.855148 115.161880,221.511505 
z"/>
<path fill="#0A0404" opacity="1.000000" stroke="none" 
	d="
M89.901138,187.762894 
	C89.830147,187.968674 89.666267,188.021957 89.253922,188.003983 
	C89.273056,187.825287 89.540657,187.717834 89.901138,187.762894 
z"/>
<path fill="#0A0404" opacity="1.000000" stroke="none" 
	d="
M104.133560,212.040283 
	C104.349083,212.013779 104.620605,212.232346 104.888634,212.719208 
	C104.653282,212.753464 104.421425,212.519409 104.133560,212.040283 
z"/>
<path fill="#140B06" opacity="1.000000" stroke="none" 
	d="
M48.098343,207.971497 
	C48.252487,207.848038 48.410942,207.917374 48.767323,208.154465 
	C48.677715,208.269577 48.390182,208.216919 48.098343,207.971497 
z"/>
<path fill="#1B4353" opacity="1.000000" stroke="none" 
	d="
M194.946167,36.305435 
	C195.808762,35.721504 196.617554,35.477608 198.023407,35.088924 
	C198.821655,34.917259 199.022827,34.890381 199.224014,34.863503 
	C205.697937,40.418919 212.751434,45.446350 218.453033,51.705307 
	C222.630859,56.291500 225.033981,62.494354 228.566040,68.104446 
	C228.916992,68.926620 228.929977,69.621010 229.070343,70.907150 
	C229.452789,71.725891 229.707855,71.952873 229.962921,72.179855 
	C230.450409,75.928795 230.937912,79.677734 231.691559,83.719223 
	C231.976303,85.080910 231.994873,86.150055 232.040680,87.858131 
	C232.067902,88.497070 232.139084,88.972092 232.139084,88.972092 
	C232.095184,90.694214 232.051285,92.416344 232.002686,94.569237 
	C212.295853,94.990242 192.591064,95.152710 172.893387,94.851067 
	C167.893951,94.774513 165.940582,96.548409 165.977600,101.648758 
	C165.952393,102.067070 165.477310,102.080383 165.223328,101.663963 
	C165.297119,98.811256 165.624878,96.374977 165.934937,93.648926 
	C165.627274,92.883141 165.337280,92.407120 165.047272,91.931099 
	C165.056702,90.904907 165.066116,89.878723 165.324448,88.214554 
	C166.007217,85.710686 166.441071,83.844795 166.874908,81.978905 
	C166.898651,81.538887 166.922379,81.098877 166.939362,80.328384 
	C169.629425,72.265877 172.326218,64.533844 175.042496,56.409904 
	C176.388870,54.289543 177.715759,52.561100 179.054321,50.462624 
	C181.017746,48.292099 182.969482,46.491608 184.964661,44.349403 
	C188.302826,41.553619 191.597580,39.099545 194.946167,36.305435 
z"/>
<path fill="#1D6634" opacity="1.000000" stroke="none" 
	d="
M199.165741,34.654110 
	C199.022827,34.890381 198.821655,34.917259 198.316437,34.954735 
	C198.110046,34.666309 198.285583,34.423630 198.743591,34.138786 
	C198.948166,34.040279 199.107483,34.444717 199.165741,34.654110 
z"/>
<path fill="#3464AE" opacity="1.000000" stroke="none" 
	d="
M229.882751,71.930908 
	C229.707855,71.952873 229.452789,71.725891 229.113724,71.255241 
	C229.287354,71.235046 229.544983,71.458504 229.882751,71.930908 
z"/>
<path fill="#395F2E" opacity="1.000000" stroke="none" 
	d="
M98.995407,96.207382 
	C99.266922,95.319542 99.526390,94.877510 99.901947,94.189621 
	C101.101158,93.968422 102.184265,93.993073 103.656372,94.276070 
	C104.045364,94.534409 104.037613,94.989082 103.669868,95.058426 
	C99.429932,100.889442 99.955605,103.252304 105.850487,106.414787 
	C109.858681,108.565125 113.658241,110.584297 117.079140,114.063667 
	C121.344856,118.402275 125.639587,123.685707 132.843506,124.320496 
	C134.732437,124.486946 136.309845,127.130112 138.219391,128.336655 
	C142.454239,131.012436 146.808929,133.498535 151.114746,136.061981 
	C148.630722,138.972885 146.146713,141.883789 143.156464,144.659851 
	C137.953247,141.378860 133.241028,138.255203 128.563095,135.081024 
	C122.380875,130.886154 116.247795,126.618263 110.031548,122.474854 
	C109.216599,121.931648 108.034561,121.939186 107.022545,121.691650 
	C106.957077,122.740379 106.837181,123.789360 106.841934,124.837784 
	C106.846405,125.823586 106.982445,126.808792 106.740311,127.724640 
	C105.043587,125.098625 103.667145,122.542229 102.290710,119.985832 
	C101.331329,114.007004 100.340073,108.033005 99.432121,102.046371 
	C99.162239,100.266884 99.126419,98.451904 98.995407,96.207382 
z"/>
<path fill="#144F1F" opacity="1.000000" stroke="none" 
	d="
M104.037613,94.989082 
	C104.037613,94.989082 104.045364,94.534409 104.061844,94.308479 
	C104.504654,94.065201 104.930992,94.047859 106.146042,94.032608 
	C121.279243,93.991600 135.623718,93.948486 149.968185,93.905380 
	C154.335480,93.922417 158.702774,93.939453 163.790405,93.949387 
	C164.680191,93.917603 164.849625,93.892929 165.003754,93.915085 
	C164.988464,93.961922 164.948532,94.052010 164.654968,94.338707 
	C153.573715,94.756760 142.786026,94.888115 131.548584,95.012970 
	C128.399933,95.011749 125.701042,95.017036 122.544090,95.015137 
	C118.727844,95.010078 115.369675,95.012222 111.567520,95.008171 
	C108.761574,94.997673 106.399590,94.993378 104.037613,94.989082 
z"/>
<path fill="#2E8A49" opacity="1.000000" stroke="none" 
	d="
M149.661545,93.633118 
	C135.623718,93.948486 121.279243,93.991600 106.466232,94.014374 
	C106.559563,93.683746 107.122383,93.101036 107.683174,93.102989 
	C121.573875,93.151375 135.464371,93.261612 149.661545,93.633118 
z"/>
<path fill="#1F8442" opacity="1.000000" stroke="none" 
	d="
M166.514603,82.077942 
	C166.441071,83.844795 166.007217,85.710686 165.319809,87.829742 
	C165.428925,86.114258 165.791595,84.145615 166.514603,82.077942 
z"/>
<path fill="#1F8442" opacity="1.000000" stroke="none" 
	d="
M165.020721,92.190918 
	C165.337280,92.407120 165.627274,92.883141 165.683578,93.672241 
	C165.282776,94.007545 165.115662,94.029778 164.948532,94.052010 
	C164.948532,94.052010 164.988464,93.961922 164.991577,93.691620 
	C164.994705,93.421326 164.964600,92.972237 164.964600,92.972237 
	C164.974457,92.798393 164.984314,92.624557 165.020721,92.190918 
z"/>
<path fill="#2E8A49" opacity="1.000000" stroke="none" 
	d="
M164.761230,93.080399 
	C164.964600,92.972237 164.994705,93.421326 165.006882,93.644791 
	C164.849625,93.892929 164.680191,93.917603 164.254562,93.923828 
	C164.113708,93.610909 164.300201,93.371971 164.761230,93.080399 
z"/>
<path fill="#2D5DA9" opacity="1.000000" stroke="none" 
	d="
M295.470428,83.453568 
	C295.522278,83.423393 295.418579,83.483734 295.470428,83.453568 
z"/>
<path fill="#2354A0" opacity="1.000000" stroke="none" 
	d="
M232.276367,88.876839 
	C232.139084,88.972092 232.067902,88.497070 232.079071,88.257492 
	C232.198059,88.272469 232.305862,88.527023 232.276367,88.876839 
z"/>
<path fill="#35552A" opacity="1.000000" stroke="none" 
	d="
M103.669868,95.058426 
	C106.399590,94.993378 108.761574,94.997673 111.602966,95.366295 
	C112.772011,96.820549 113.247116,98.166435 114.188774,98.955666 
	C118.050507,102.192307 122.058777,105.253799 126.004005,108.391212 
	C127.897560,109.897041 129.680328,111.562599 131.678986,112.910011 
	C133.638763,114.231201 135.879822,115.130302 137.869843,116.412651 
	C140.809204,118.306740 143.599899,120.430229 146.519562,122.356506 
	C149.914505,124.596352 153.380325,126.728760 156.815399,128.907806 
	C155.104065,131.183197 153.392731,133.458588 151.398071,135.897980 
	C146.808929,133.498535 142.454239,131.012436 138.219391,128.336655 
	C136.309845,127.130112 134.732437,124.486946 132.843506,124.320496 
	C125.639587,123.685707 121.344856,118.402275 117.079140,114.063667 
	C113.658241,110.584297 109.858681,108.565125 105.850487,106.414787 
	C99.955605,103.252304 99.429932,100.889442 103.669868,95.058426 
z"/>
<path fill="#2F4622" opacity="1.000000" stroke="none" 
	d="
M164.654968,94.338707 
	C165.115662,94.029778 165.282776,94.007545 165.701263,93.962006 
	C165.624878,96.374977 165.297119,98.811256 164.985992,101.675697 
	C164.670303,105.109268 164.337997,108.114677 164.042618,111.542336 
	C162.943832,114.318199 161.808105,116.671822 160.344391,118.796341 
	C160.010925,118.378166 160.005463,118.189079 159.956146,117.633774 
	C158.441010,116.177948 156.952972,114.140816 155.501358,114.166451 
	C149.890488,114.265511 147.572662,106.769829 141.503845,108.420403 
	C141.431747,108.440002 141.273438,108.207977 141.180389,108.075798 
	C138.117813,103.725029 135.058304,99.372086 131.998337,95.019470 
	C142.786026,94.888115 153.573715,94.756760 164.654968,94.338707 
z"/>
<path fill="#3A6835" opacity="1.000000" stroke="none" 
	d="
M107.060600,127.794266 
	C106.982445,126.808792 106.846405,125.823586 106.841934,124.837784 
	C106.837181,123.789360 106.957077,122.740379 107.022545,121.691650 
	C108.034561,121.939186 109.216599,121.931648 110.031548,122.474854 
	C116.247795,126.618263 122.380875,130.886154 128.563095,135.081024 
	C133.241028,138.255203 137.953247,141.378860 142.852112,144.815948 
	C139.584137,147.744583 136.114227,150.382263 132.267334,153.047333 
	C123.439491,149.579803 117.827187,142.863007 112.389046,135.935455 
	C111.285332,134.529449 110.044037,133.231445 108.523636,131.609497 
	C108.181091,131.335358 108.081680,131.017227 108.086014,130.671173 
	C107.710594,129.582321 107.330826,128.839508 106.980225,128.021729 
	C107.009399,127.946777 107.060600,127.794266 107.060600,127.794266 
z"/>
<path fill="#334F26" opacity="1.000000" stroke="none" 
	d="
M157.001892,128.629395 
	C153.380325,126.728760 149.914505,124.596352 146.519562,122.356506 
	C143.599899,120.430229 140.809204,118.306740 137.869843,116.412651 
	C135.879822,115.130302 133.638763,114.231201 131.678986,112.910011 
	C129.680328,111.562599 127.897560,109.897041 126.004005,108.391212 
	C122.058777,105.253799 118.050507,102.192307 114.188774,98.955666 
	C113.247116,98.166435 112.772011,96.820549 112.046944,95.372490 
	C115.369675,95.012222 118.727844,95.010078 122.548882,95.380722 
	C123.501976,96.733284 123.748878,98.008682 124.521866,98.644989 
	C129.618057,102.840080 134.827484,106.897621 140.143250,111.287529 
	C141.191010,112.050041 142.095505,112.525017 143.217102,113.110718 
	C143.704849,113.421303 143.893463,113.680824 144.056122,114.342697 
	C145.074844,115.123596 146.037415,115.561798 147.249847,116.000114 
	C147.499695,116.000229 147.999390,116.000305 148.055740,116.342957 
	C149.074722,117.123634 150.037369,117.561668 151.399994,117.999847 
	C152.866653,117.999992 153.933334,117.999992 155.156982,118.311462 
	C156.823715,120.079422 158.333450,121.535919 159.843201,122.992416 
	C158.958267,124.778603 158.073334,126.564789 157.001892,128.629395 
z"/>
<path fill="#324B24" opacity="1.000000" stroke="none" 
	d="
M159.908340,122.608788 
	C158.333450,121.535919 156.823715,120.079422 155.368774,118.065964 
	C156.949066,117.672661 158.474533,117.836334 160.000000,118.000000 
	C160.005463,118.189079 160.010925,118.378166 160.035095,118.851669 
	C160.027023,120.165787 160.000259,121.195473 159.908340,122.608788 
z"/>
<path fill="#0C0604" opacity="1.000000" stroke="none" 
	d="
M116.845375,194.805603 
	C122.473145,194.096527 126.490166,196.799255 126.631714,202.592926 
	C126.728790,206.566559 125.207069,210.989578 123.170082,214.490967 
	C121.105110,218.040482 117.507378,217.327499 114.425064,213.610229 
	C109.998322,208.271576 111.060310,198.750687 116.845375,194.805603 
z"/>
<path fill="#BE8B25" opacity="1.000000" stroke="none" 
	d="
M108.081680,131.017227 
	C108.081680,131.017227 108.181091,131.335358 108.194916,131.499557 
	C107.094917,139.356293 106.197983,147.090378 104.737320,154.716492 
	C104.289520,157.054398 102.296898,159.096405 100.677536,161.840103 
	C96.828743,161.840103 92.326149,161.840103 87.446609,161.847137 
	C88.410362,155.389603 88.711205,148.447067 91.398148,142.601257 
	C93.851730,137.263153 94.823853,132.177597 95.314362,126.527977 
	C95.552841,123.781250 98.126396,121.232971 99.735992,118.652954 
	C99.758774,118.616425 100.994240,119.336441 101.977219,119.844604 
	C103.667145,122.542229 105.043587,125.098625 106.740311,127.724640 
	C107.060600,127.794266 107.009399,127.946777 107.000748,128.353973 
	C107.355293,129.513199 107.718491,130.265213 108.081680,131.017227 
z"/>
<path fill="#010101" opacity="1.000000" stroke="none" 
	d="
M75.335693,188.050659 
	C75.567558,187.817245 76.125526,187.666061 76.833878,187.727295 
	C76.543434,188.004105 76.102615,188.068481 75.335693,188.050659 
z"/>
<path fill="#D4AA58" opacity="1.000000" stroke="none" 
	d="
M78.205902,188.514648 
	C78.486786,188.289856 78.933624,188.229401 79.709061,188.260788 
	C79.482391,188.461411 78.927132,188.570175 78.205902,188.514648 
z"/>
<path fill="#D4AA58" opacity="1.000000" stroke="none" 
	d="
M92.223969,216.257446 
	C92.483070,216.149124 92.856598,216.279114 93.230255,216.725983 
	C92.933052,216.860504 92.635727,216.678131 92.223969,216.257446 
z"/>
<path fill="#0D0D0D" opacity="1.000000" stroke="none" 
	d="
M218.466599,207.793793 
	C219.244781,203.171097 220.430878,198.716415 221.843765,193.410049 
	C223.842041,198.813141 225.390793,203.000717 227.225586,207.961777 
	C224.229370,207.961777 221.551956,207.961777 218.466599,207.793793 
z"/>
<path fill="#080908" opacity="1.000000" stroke="none" 
	d="
M251.004608,200.736969 
	C251.004501,197.650925 251.004501,195.028290 251.004501,190.741455 
	C255.162262,192.297470 258.840698,193.009247 261.575012,195.010818 
	C262.737579,195.861847 262.893097,200.608551 261.806213,201.491058 
	C259.501221,203.362671 256.115479,204.004974 253.073410,204.739120 
	C252.690796,204.831451 251.708923,202.440674 251.004608,200.736969 
z"/>
<path fill="#121212" opacity="1.000000" stroke="none" 
	d="
M226.996094,238.931366 
	C228.388260,238.193970 229.783646,237.870804 231.179016,237.547638 
	C231.388275,238.562805 232.082458,239.866287 231.691162,240.524353 
	C231.128601,241.470428 229.775833,241.946609 228.760361,242.623367 
	C228.173340,241.530777 227.586319,240.438202 226.996094,238.931366 
z"/>
<path fill="#314B24" opacity="1.000000" stroke="none" 
	d="
M159.956146,117.633774 
	C158.474533,117.836334 156.949066,117.672661 155.211792,117.754501 
	C153.933334,117.999992 152.866653,117.999992 151.343796,117.657150 
	C149.924866,116.876320 148.962128,116.438316 147.999390,116.000305 
	C147.999390,116.000305 147.499695,116.000229 147.193710,115.657425 
	C145.925156,114.876411 144.962570,114.438210 144.000000,114.000000 
	C143.893463,113.680824 143.704849,113.421303 143.160950,112.768021 
	C141.925156,111.876411 140.962570,111.438210 140.000000,111.000000 
	C134.827484,106.897621 129.618057,102.840080 124.521866,98.644989 
	C123.748878,98.008682 123.501976,96.733284 123.006950,95.387909 
	C125.701042,95.017036 128.399933,95.011749 131.548584,95.012970 
	C135.058304,99.372086 138.117813,103.725029 141.180389,108.075798 
	C141.273438,108.207977 141.431747,108.440002 141.503845,108.420403 
	C147.572662,106.769829 149.890488,114.265511 155.501358,114.166451 
	C156.952972,114.140816 158.441010,116.177948 159.956146,117.633774 
z"/>
<path fill="#B2832A" opacity="1.000000" stroke="none" 
	d="
M108.086014,130.671173 
	C107.718491,130.265213 107.355293,129.513199 106.971581,128.428940 
	C107.330826,128.839508 107.710594,129.582321 108.086014,130.671173 
z"/>
<path fill="#324B24" opacity="1.000000" stroke="none" 
	d="
M144.056122,114.342697 
	C144.962570,114.438210 145.925156,114.876411 146.943863,115.657303 
	C146.037415,115.561798 145.074844,115.123596 144.056122,114.342697 
z"/>
<path fill="#324B24" opacity="1.000000" stroke="none" 
	d="
M148.055740,116.342957 
	C148.962128,116.438316 149.924866,116.876320 150.943802,117.657013 
	C150.037369,117.561668 149.074722,117.123634 148.055740,116.342957 
z"/>
<path fill="#324B24" opacity="1.000000" stroke="none" 
	d="
M140.143250,111.287529 
	C140.962570,111.438210 141.925156,111.876411 142.943863,112.657303 
	C142.095505,112.525017 141.191010,112.050041 140.143250,111.287529 
z"/>
</svg>